<svg xmlns="http://www.w3.org/2000/svg" viewBox="0 0 300 300"><defs><style>.cls-1{fill:none;}.cls-2,.cls-3{fill:#ec6228;}.cls-3{font-size:34px;stroke:#ec6228;stroke-miterlimit:10;font-family:Roboto-BoldItalic, Roboto;font-weight:700;font-style:italic;}.cls-4{letter-spacing:-0.01em;}</style></defs><g id="Capa_2" data-name="Capa 2"><g id="Capa_4" data-name="Capa 4"><rect class="cls-1" width="300" height="300"/></g><g id="Capa_2-2" data-name="Capa 2"><circle class="cls-2" cx="152.74" cy="124.98" r="105"/><path d="M157.26,154.05c14.39,3.64,20.36,16.56,18.44,27.2a23.53,23.53,0,0,1-46.56-1.58c-1.27-11.06,5.61-22.35,18.64-25.58,0-1.69,0-3.44,0-5.19a4.73,4.73,0,0,1,6.5-4.23,4.65,4.65,0,0,1,3,4.39C157.31,150.74,157.26,152.41,157.26,154.05Zm0,10.06c0,2.84,0,5.55,0,8.27a4.88,4.88,0,0,1-3.77,4.79,4.7,4.7,0,0,1-5.31-2.91,6.12,6.12,0,0,1-.38-2.21c-.05-2.62,0-5.24,0-7.91a13.74,13.74,0,0,0-9.19,14.16,14,14,0,0,0,27.84.24A13.85,13.85,0,0,0,157.26,164.11Z"/><path d="M220.45,137.34H173.7c0-.41-.06-.79-.06-1.18V116.73c0-2.13.69-2.83,2.77-2.83q20.64,0,41.27,0c2,0,2.83.78,2.83,2.82q0,9.78,0,19.56C220.51,136.59,220.48,136.91,220.45,137.34Z"/><path d="M105.65,165.48a21.11,21.11,0,1,1,21.13-21A21,21,0,0,1,105.65,165.48Zm14.9-26.77c.93-.89,1.78-1.72,2.66-2.53.56-.52.45-.93-.1-1.36-1-.76-1.88-1.63-2.91-2.29-8.45-5.36-17.22-6-26.28-1.64a21.9,21.9,0,0,0-6.29,4.54l3.05,3.25A21.39,21.39,0,0,1,120.55,138.71Zm-21.84,15a6.93,6.93,0,0,0,6.82,7,7.13,7.13,0,0,0,7.14-6.92,7.21,7.21,0,0,0-7-7.06A7,7,0,0,0,98.71,153.68Zm-4.49-11.57,3.22,3.14a11.93,11.93,0,0,1,16.35-.08l3.31-2.95A16.22,16.22,0,0,0,94.22,142.11Z"/><path d="M84.59,99.81V71.74h28V99.81Z"/><path d="M117.37,83.48c.45,0,.84-.06,1.23-.06q10.92,0,21.84,0a7.06,7.06,0,0,1,7.46,7.43c0,9.64,0,19.28,0,28.92,0,1-.26,1.35-1.27,1.27s-2.22,0-3.49,0V91.45c0-2.5-.78-3.27-3.32-3.27H117.37Z"/><path d="M161.88,121c-1.46,0-2.77,0-4.08,0-.23,0-.51-.36-.64-.62a2.29,2.29,0,0,1,0-.83q0-16.55,0-33.11c0-4.81,2.86-7.66,7.68-7.66h12.23c.43,0,.86,0,1.34.06v4.58c-.46,0-.89.06-1.32.06H165c-2.15,0-3.08.92-3.08,3V121Z"/><path d="M220.48,142.06c0,.93.07,1.81,0,2.67a2.16,2.16,0,0,1-2.17,2c-.4,0-.8,0-1.2,0H177c-2.92,0-3.4-.48-3.4-3.4v-1.28Z"/><path d="M183.05,160.78v-4.64H190v-4.69h14.11v4.66h7v4.67Z"/><path d="M112.68,67H84.6a14.94,14.94,0,0,1,0-2.92,2.13,2.13,0,0,1,2.24-1.79c7.84,0,15.68,0,23.52,0a2.27,2.27,0,0,1,2.27,2.29C112.7,65.36,112.68,66.12,112.68,67Z"/><path d="M112.67,104.61c0,.9,0,1.77,0,2.63a2.26,2.26,0,0,1-2.53,2H87.57c-2.27,0-3-.76-3-3,0-.52,0-1,0-1.65Z"/><path d="M180.58,179.43v-4.59h11.17c2,0,2.92-.94,2.93-3s0-4.16,0-6.32h4.84c-.15,3-.06,6-.5,8.91a6.37,6.37,0,0,1-6.07,5.06c-4,.1-8,0-12,0A1.51,1.51,0,0,1,180.58,179.43Z"/><path d="M103.32,170.12a3.83,3.83,0,0,1,.49-.09h4.25V172c0,2,.89,2.86,2.86,2.86h13.53v4.74h-1.58c-3.88,0-7.76-.14-11.62,0-4.51.22-8.45-3.08-7.94-8A12.53,12.53,0,0,0,103.32,170.12Z"/><path d="M206.35,78.76H197l.44-4.7h5.63c3.11,0,3.12,0,3.3,3.08C206.38,77.65,206.35,78.16,206.35,78.76Z"/><path d="M197.42,88.13,197,83.49h9.45l-.31,4.64Z"/><path d="M192.78,88.18c-2.77,0-5.4,0-8,0a.82.82,0,0,1-.59-.46c-.41-1.35-.76-2.72-1.17-4.22h9.39Z"/><path d="M192.77,74.06l-.37,4.68H183c.39-1.46.73-2.83,1.14-4.18a.88.88,0,0,1,.69-.48C187.43,74.05,190,74.06,192.77,74.06Z"/><path d="M220.25,83.48c0,.47,0,.83-.07,1.18-.4,3.19-.78,3.53-4,3.52l-5.15,0c-.07,0-.14-.08-.3-.18.08-1.44.16-2.94.25-4.49Z"/><path d="M220.48,78.76H211c-.09-1.56-.17-3.06-.25-4.7,2.71,0,5.29,0,7.88,0a.91.91,0,0,1,.66.53C219.73,75.94,220.07,77.27,220.48,78.76Z"/><path d="M198,69.28c1-2.19,1.68-4.16,2.67-6,.72-1.34,1.44-1.33,2.13,0,1,1.85,1.71,3.83,2.65,6Z"/><path d="M198.32,92.84h6.89c-.66,2.28-1.19,4.47-2.55,6.34-.57.77-1.15.91-1.79,0A16.32,16.32,0,0,1,198.32,92.84Z"/><path d="M208.32,63.51a19.18,19.18,0,0,1,8.11,5.9c-2.24,0-4.17,0-6.1,0-.18,0-.46-.31-.52-.53C209.31,67.14,208.85,65.43,208.32,63.51Z"/><path d="M208.31,98.6c.58-2,1.13-3.85,1.69-5.76h6C215.76,94.37,211.15,97.84,208.31,98.6Z"/><path d="M195.18,63.54l-1.74,5.81h-6.3A18.07,18.07,0,0,1,195.18,63.54Z"/><path d="M195.21,98.74a19.67,19.67,0,0,1-8.08-5.86h6.32Z"/><path d="M143.24,125.68h4.66c0,1.38,0,2.73,0,4.07a.9.9,0,0,1-.64.6c-1.3.06-2.61,0-4,0Z"/><path d="M157.14,125.71h4.67v4.67c-1.37,0-2.72,0-4.06,0a.91.91,0,0,1-.58-.66C157.11,128.39,157.14,127.08,157.14,125.71Z"/><path d="M143.22,139.73v-4.67h4.68c0,1.39,0,2.74,0,4.08a.81.81,0,0,1-.55.57C146,139.76,144.63,139.73,143.22,139.73Z"/><path d="M157.14,135.05h4.67v4.69c-1.36,0-2.7,0-4,0a.9.9,0,0,1-.6-.64C157.11,137.76,157.14,136.45,157.14,135.05Z"/><path d="M105.59,156.12a2.37,2.37,0,0,1,.12-4.73,2.4,2.4,0,0,1,2.34,2.37A2.37,2.37,0,0,1,105.59,156.12Z"/><text class="cls-3" transform="translate(12.02 270.81)"><tspan class="cls-4">H</tspan><tspan x="23.01" y="0">YPER MEGA RED</tspan></text></g></g></svg>