<svg xmlns="http://www.w3.org/2000/svg" viewBox="0 0 35 35"><defs><style>.cls-1{fill:#ec6228;}.cls-2{fill:#fff;}</style></defs><g id="Capa_2" data-name="Capa 2"><g id="logo"><circle class="cls-1" cx="17.5" cy="17.5" r="17.5"/><path class="cls-2" d="M16.71,22.38v-.84a.77.77,0,0,1,.78-.78.76.76,0,0,1,.78.79v.83a4,4,0,0,1,2.61,1.89A3.81,3.81,0,0,1,21.33,27a3.91,3.91,0,1,1-4.62-4.57Zm0,1.65a2.33,2.33,0,0,0-1.51,2.64,2.33,2.33,0,0,0,4.62-.32,2.27,2.27,0,0,0-1.55-2.3v1.36a.76.76,0,0,1-.79.8.77.77,0,0,1-.77-.8Z"/><path class="cls-2" d="M28.8,19.58H21a.44.44,0,0,1,0-.1V16.12c0-.29.14-.43.44-.43h6.92c.27,0,.43.13.43.38C28.8,17.23,28.8,18.39,28.8,19.58Z"/><path class="cls-2" d="M9.7,24.26a3.51,3.51,0,1,1,3.5-3.48A3.49,3.49,0,0,1,9.7,24.26Zm3-5a4.23,4.23,0,0,0-6,0l.52.53a3.56,3.56,0,0,1,4.93,0Zm-3,1.86a1.17,1.17,0,1,0,1.16,1.16A1.18,1.18,0,0,0,9.7,21.15Zm1.89-.76a2.63,2.63,0,0,0-3.75,0l.5.53a2,2,0,0,1,2.74,0Z"/><path class="cls-2" d="M6.2,13.33V8.68h4.64v4.65Z"/><path class="cls-2" d="M11.66,11.4v-.77H15.5a1.15,1.15,0,0,1,1.21,1.22v5h-.78V12c0-.44-.12-.56-.57-.56h-3.7Z"/><path class="cls-2" d="M21.79,9.84v.78H19.63c-.46,0-.58.12-.58.57v5.65h-.78V11.08a1.16,1.16,0,0,1,1.25-1.24h2.27Z"/><path class="cls-2" d="M28.8,20.38v.34a.39.39,0,0,1-.44.42H21.59c-.5,0-.59-.1-.59-.6v-.17Z"/><path class="cls-2" d="M22.57,23.47v-.75h1.15v-.78h2.34v.76h1.17v.77Z"/><path class="cls-2" d="M6.19,7.87c0-.14,0-.26,0-.38a.36.36,0,0,1,.39-.38h3.89a.36.36,0,0,1,.39.38c0,.12,0,.24,0,.38Z"/><path class="cls-2" d="M6.19,14.14h4.67c0,.13,0,.26,0,.39a.37.37,0,0,1-.39.38H6.58a.37.37,0,0,1-.39-.38C6.18,14.41,6.19,14.28,6.19,14.14Z"/><path class="cls-2" d="M22.16,26.6v-.76l.2,0H24c.34,0,.49-.15.49-.49v-1h.74a8.9,8.9,0,0,1,0,1.46,1.06,1.06,0,0,1-1.11.86Z"/><path class="cls-2" d="M12.82,25.82v.78H10.47a1.15,1.15,0,0,1-1.16-1.15c0-.13,0-.26,0-.41h.78v.31a.42.42,0,0,0,.48.47h2.26Z"/><path class="cls-2" d="M24.89,10.63h1.57l-.06.75H25Z"/><path class="cls-2" d="M24.89,9.83,25,9.07H26.4l.06.76Z"/><path class="cls-2" d="M27.18,11.4l.05-.77h1.56q-.09.34-.18.66a.18.18,0,0,1-.13.1Z"/><path class="cls-2" d="M24.13,10.64l.05.76H22.85s-.1-.08-.11-.13-.11-.4-.17-.62Z"/><path class="cls-2" d="M27.22,9.83l0-.77h1.31c.05,0,.11.07.12.11.07.21.12.42.18.65Z"/><path class="cls-2" d="M24.18,9.06l-.05.77H22.57c.06-.24.12-.47.19-.69a.15.15,0,0,1,.13-.08Z"/><path class="cls-2" d="M25.07,8.26c.14-.33.26-.66.42-1s.25-.24.39,0,.26.62.41,1Z"/><path class="cls-2" d="M25.06,12.19h1.18a2.46,2.46,0,0,1-.47,1.1c-.1.13-.2,0-.24-.07C25.37,12.89,25.22,12.56,25.06,12.19Z"/><path class="cls-2" d="M23.25,12.19H24.3l.28,1A3,3,0,0,1,23.25,12.19Z"/><path class="cls-2" d="M27.05,8.26l-.28-.94a3,3,0,0,1,1.33.94Z"/><path class="cls-2" d="M24.58,7.31l-.28,1h-1A3.07,3.07,0,0,1,24.58,7.31Z"/><path class="cls-2" d="M27.06,12.19h1a3,3,0,0,1-1.33,1Z"/><path class="cls-2" d="M16.7,17.65v.75H16v-.75Z"/><path class="cls-2" d="M19,18.41h-.74v-.76H19Z"/><path class="cls-2" d="M16.7,19.21V20H16v-.75Z"/><path class="cls-2" d="M18.28,20v-.75H19V20Z"/><path class="cls-2" d="M9.69,22.7a.37.37,0,0,1-.38-.4.36.36,0,0,1,.39-.37.37.37,0,0,1,.38.4A.36.36,0,0,1,9.69,22.7Z"/></g></g></svg>