<svg xmlns="http://www.w3.org/2000/svg" viewBox="0 0 100 100"><defs><style>.cls-1{fill:none;}.cls-2{fill:#fff;}</style></defs><g id="Capa_2" data-name="Capa 2"><g id="Capa_2-2" data-name="Capa 2"><rect class="cls-1" width="100" height="100"/><g id="Capa_7_copia" data-name="Capa 7 copia"><path class="cls-2" d="M2.5,46.39a12.79,12.79,0,0,1,1.09-1.9,5.41,5.41,0,0,1,5.17-1.71V64.85a5.05,5.05,0,0,1-6.23-3.5l0-.11Z"/><path class="cls-2" d="M97.5,61.24a5,5,0,0,1-3.64,3.61,17.78,17.78,0,0,1-2.63.17V42.89a5,5,0,0,1,6,3,2.42,2.42,0,0,0,.24.45Z"/><path class="cls-2" d="M20.14,69.79a88.54,88.54,0,0,0,0,9.5,10.86,10.86,0,0,0,10.48,9.36h6.3a1.38,1.38,0,0,0,.89-.55,4.8,4.8,0,0,1,4.39-2.58H57.8a4.69,4.69,0,0,1,4.86,4.53v.11A4.64,4.64,0,0,1,58.23,95H42.05a4.48,4.48,0,0,1-4.18-2.58,1,1,0,0,0-1-.58H30.27A14.19,14.19,0,0,1,17,80.32a25.62,25.62,0,0,1-.24-3.5V69.75H15.3A3.22,3.22,0,0,1,12,66.62V41.36A3.16,3.16,0,0,1,15,38h6.25a3.19,3.19,0,0,1,3.47,2.88,2.71,2.71,0,0,1,0,.57v24c0,3.1-1,4.16-4.14,4.23Z"/><path class="cls-2" d="M84.4,34.84H78.13a28.5,28.5,0,0,0-56.24,0H15.54a34.78,34.78,0,0,1,68.86,0Z"/><path class="cls-2" d="M88,53.88V66.2a3.24,3.24,0,0,1-3,3.52,2.72,2.72,0,0,1-.57,0H78.76a3.22,3.22,0,0,1-3.46-3,3.38,3.38,0,0,1,0-.45V41.37A3.15,3.15,0,0,1,78.24,38a2.43,2.43,0,0,1,.54,0h5.94a3.15,3.15,0,0,1,3.28,3,1.71,1.71,0,0,1,0,.32Z"/></g></g></g></svg>