<svg xmlns="http://www.w3.org/2000/svg" viewBox="0 0 100 100"><defs><style>.cls-1{fill:none;}.cls-2{fill:#fff;}</style></defs><g id="Capa_2" data-name="Capa 2"><g id="Capa_2-2" data-name="Capa 2"><rect class="cls-1" width="100" height="100"/><g id="Capa_9" data-name="Capa 9"><path class="cls-2" d="M97.49,46.85a5.14,5.14,0,0,1-.75.65,1.38,1.38,0,0,1-2-1.36V8.52c0-2.34-.89-3.24-3.24-3.24H8.52c-2.34,0-3.24.9-3.24,3.24v37.2c0,.79,0,1.51-.88,1.84S3,47.42,2.5,46.85V6.57A6.49,6.49,0,0,1,4.68,3.52c.6-.4,1.27-.68,1.89-1H93.42a6.51,6.51,0,0,1,3.06,2.18c.4.6.68,1.27,1,1.9Z"/><path class="cls-2" d="M2.5,53.14a4.27,4.27,0,0,1,.75-.65,1.37,1.37,0,0,1,2,1.36V91.46c0,2.35.9,3.24,3.24,3.24H91.46c2.35,0,3.24-.89,3.24-3.24V54.27c0-.79,0-1.51.89-1.85s1.35.15,1.9.72V93.42a6.46,6.46,0,0,1-2.19,3.06c-.6.4-1.26.68-1.9,1H6.57a6.46,6.46,0,0,1-3.05-2.2,16,16,0,0,1-1-1.88Z"/><path class="cls-2" d="M90.5,50A40.51,40.51,0,1,1,50,9.49h0A40.51,40.51,0,0,1,90.5,50ZM50,87.66A37.67,37.67,0,1,0,12.32,50h0A37.75,37.75,0,0,0,50,87.66Z"/><path class="cls-2" d="M18.69,12.73A5.35,5.35,0,0,1,13.36,18a5.45,5.45,0,0,1-5.3-5.35,5.43,5.43,0,0,1,5.36-5.3A5.34,5.34,0,0,1,18.69,12.73Zm-5.33,2.43a2.46,2.46,0,1,0-2.42-2.5,2.4,2.4,0,0,0,2.31,2.5Z"/><path class="cls-2" d="M81.3,12.62a5.3,5.3,0,1,1,10.6-.33,4.34,4.34,0,0,1,0,.51A5.44,5.44,0,0,1,86.47,18,5.35,5.35,0,0,1,81.3,12.62Zm5.33,2.54a2.46,2.46,0,1,0-2.5-2.42,2.42,2.42,0,0,0,2.42,2.42Z"/><path class="cls-2" d="M13.45,91.38a5.29,5.29,0,1,1,5.25-5.33A5.29,5.29,0,0,1,13.45,91.38Zm2.42-5.32a2.49,2.49,0,1,0-2.45,2.52,2.49,2.49,0,0,0,2.45-2.52Z"/><path class="cls-2" d="M86.63,91.38a5.29,5.29,0,0,1,0-10.58h0a5.29,5.29,0,1,1,0,10.58Zm2.5-5.24a2.47,2.47,0,1,0-2.56,2.44h.06a2.51,2.51,0,0,0,2.43-2.44Z"/><path class="cls-2" d="M34.35,44.27c-2.27-2.45-4.55-4.87-6.79-7.36-1.22-1.35-2.41-2.71-3.54-4.16a4.55,4.55,0,0,1,.35-6.37,37.46,37.46,0,0,1,7.28-6c3.24-2,6.55-.74,7.38,3a36.86,36.86,0,0,0,3.95,11c.12.21.26.4.32.51,0-2-.06-4,0-6,.13-3.18.26-6.36.56-9.5a4.37,4.37,0,0,1,4.52-4.17,33,33,0,0,1,10.08,1.05,4.39,4.39,0,0,1,3.42,5.19,4.21,4.21,0,0,1-.56,1.41,52.07,52.07,0,0,0-4.54,8.93,13.73,13.73,0,0,0-.71,3l.74-.8A78.45,78.45,0,0,1,67,24.21a4.61,4.61,0,0,1,6.52.14l.19.21a38.1,38.1,0,0,1,5.87,7.16c2,3.21.69,6.4-3,7.39-2.93.77-5.82,1.76-8.7,2.71A11.1,11.1,0,0,0,65,43.47H66a74.41,74.41,0,0,1,14.62.38,4.5,4.5,0,0,1,4.21,4.47,33,33,0,0,1-1.08,10.37A4.44,4.44,0,0,1,78.35,62a4.37,4.37,0,0,1-1.3-.54,45.75,45.75,0,0,0-8.78-4.63,14.11,14.11,0,0,0-3-.75l.73.68A78.57,78.57,0,0,1,75.78,67c1.88,2.44,1.75,4.62-.4,6.79a37.5,37.5,0,0,1-7,5.74c-3.3,2.09-6.58.78-7.42-3a36.42,36.42,0,0,0-4.07-11.16.82.82,0,0,0-.4-.36,8.54,8.54,0,0,0,.07,1.35,73.66,73.66,0,0,1-.42,14.16,4.45,4.45,0,0,1-4.49,4.19,31.21,31.21,0,0,1-10.27-1.06,4.39,4.39,0,0,1-3.27-5.29A4.5,4.5,0,0,1,38.66,77a50.55,50.55,0,0,0,4.55-8.76,15.73,15.73,0,0,0,.73-3l-.7.77A80.17,80.17,0,0,1,33,75.78a4.63,4.63,0,0,1-6.54-.09,2.91,2.91,0,0,1-.24-.27,37.34,37.34,0,0,1-5.87-7.15c-2-3.17-.67-6.5,3-7.31a37.08,37.08,0,0,0,11-4,1.59,1.59,0,0,0,.58-.54c-.69,0-1.36.13-2.06.15a81.18,81.18,0,0,1-13.41-.48,4.5,4.5,0,0,1-4.26-4.52,33.3,33.3,0,0,1,1.06-10.28,4.42,4.42,0,0,1,5.34-3.26,4.2,4.2,0,0,1,1.29.54,48.4,48.4,0,0,0,8.87,4.59c.95.34,1.92.6,2.89.89ZM62.41,50A12.42,12.42,0,1,0,50,62.41,12.59,12.59,0,0,0,62.41,50Zm.39-8.64A37.59,37.59,0,0,1,76,36.26c1.78-.39,2.23-1.52,1.25-3.07A33.36,33.36,0,0,0,72,26.76c-1.44-1.35-2-1.48-3.47-.16-2.71,2.41-5.43,4.91-8,7.42-.92.88-1.73,1.9-2.51,2.72ZM37.2,58.64l-1.64,1A40.75,40.75,0,0,1,23.93,63.7c-1.67.36-2.13,1.5-1.25,2.94a33,33,0,0,0,5.76,7,1.67,1.67,0,0,0,2.35.26l.07-.06A75.19,75.19,0,0,0,42,63.16Zm4.15-21.46c-.27-.44-.64-1-1-1.61A40.8,40.8,0,0,1,36.3,24c-.41-1.84-1.52-2.26-3.13-1.24a32.55,32.55,0,0,0-6.62,5.42c-1,1.05-1.13,1.8-.18,2.84,2.71,3,5.43,6,8.25,8.9.7.75,1.55,1.36,2.21,2ZM58.62,62.8A37.49,37.49,0,0,1,63.71,76c.41,1.79,1.52,2.25,3.07,1.35a32.66,32.66,0,0,0,6.63-5.43c1.06-1.12,1.2-1.83.17-3-2.72-3.06-5.62-6.06-8.47-9.06-.62-.67-1.36-1.22-1.93-1.73ZM52.9,35c.15-.6.27-1.1.4-1.6a39.9,39.9,0,0,1,5.43-11.5c.94-1.48.42-2.63-1.27-3a32.22,32.22,0,0,0-8.92-.8,1.63,1.63,0,0,0-1.86,1.74c-.2,3.93-.38,7.88-.5,11.83,0,1.15.14,2.32.19,3.34ZM47.09,65l-.38,1.56a40.23,40.23,0,0,1-5.43,11.49c-1,1.54-.46,2.72,1.36,3.07a33.52,33.52,0,0,0,8.82.79,1.64,1.64,0,0,0,1.9-1.78q.33-5.88.5-11.74c0-1.19-.14-2.37-.19-3.39ZM35,47.1l-1.63-.42a40.44,40.44,0,0,1-11.48-5.43c-1.45-.92-2.59-.43-3,1.23a32.54,32.54,0,0,0-.81,9.07,1.64,1.64,0,0,0,1.54,1.74h0c4.08.2,8.15.37,12.3.5,1.06,0,2.13-.12,3-.17ZM65,52.88l1.64.42a40.77,40.77,0,0,1,11.49,5.43c1.44.91,2.58.41,3-1.25a32.73,32.73,0,0,0,.82-9,1.67,1.67,0,0,0-1.52-1.81h-.17c-3.88-.2-7.76-.38-11.65-.5-1.24,0-2.49.12-3.57.19Z"/></g></g></g></svg>