<svg xmlns="http://www.w3.org/2000/svg" viewBox="0 0 100 100"><defs><style>.cls-1{fill:none;}.cls-2{fill:#fff;}</style></defs><g id="Capa_2" data-name="Capa 2"><g id="Capa_2-2" data-name="Capa 2"><rect class="cls-1" width="100" height="100"/><g id="Capa_10" data-name="Capa 10"><path class="cls-2" d="M90,50.07V90.7a6.58,6.58,0,0,1-6.4,6.79c-.22,0-.43,0-.65,0H17a6.62,6.62,0,0,1-7-6.23c0-.21,0-.43,0-.64V9.3a6.59,6.59,0,0,1,6.41-6.79H83a6.61,6.61,0,0,1,7,6.2c0,.22,0,.45,0,.67ZM14.44,50V90.16c0,2.31.64,2.92,3,2.92h65c2.39,0,3-.61,3-2.91V9.76c0-2.29-.64-2.91-3-2.91H16.64a2.1,2.1,0,0,0-2.18,2v1.24Z"/><path class="cls-2" d="M50,67.25c-16-.06-28.82-12.68-28.76-28.19s13-28,29-28S79,23.77,78.92,39.28,65.87,67.27,50,67.25ZM74.39,39.18c0-13.11-10.92-23.75-24.4-23.76S25.57,26,25.56,39.16,36.48,62.91,50,62.92,74.34,52.4,74.39,39.32Z"/><path class="cls-2" d="M58.84,80.16V74.41c0-2.19.74-2.88,3-2.89h3.86a6.35,6.35,0,0,1,6.4,5.75A25.38,25.38,0,0,1,72,83.61a6.33,6.33,0,0,1-6.35,5.2H61.41A2.23,2.23,0,0,1,58.86,87a2.18,2.18,0,0,1,0-.57V80.16Zm4.52,4.3h2.19a2.08,2.08,0,0,0,2.16-2,1.93,1.93,0,0,0,0-.24V78.17A2,2,0,0,0,65.82,76a20.19,20.19,0,0,0-2.46,0Z"/><path class="cls-2" d="M43.3,80.12V73.86a2.06,2.06,0,0,1,1.83-2.29,2,2,0,0,1,.35,0,45,45,0,0,1,5.69.13,6.41,6.41,0,0,1,5.59,6V82.8a6.52,6.52,0,0,1-6.26,6H45.72A2.12,2.12,0,0,1,43.33,87a1.86,1.86,0,0,1,0-.41C43.29,84.44,43.3,82.28,43.3,80.12Zm4.54,4.31h2.3a1.93,1.93,0,0,0,2-1.86V77.86a2,2,0,0,0-1.9-1.93,18.74,18.74,0,0,0-2.37,0Z"/><path class="cls-2" d="M36.64,82.38H32.23v3.85c0,1.61-.88,2.58-2.27,2.58s-2.26-1-2.26-2.59V74.08a2.28,2.28,0,1,1,4.55-.21,1.49,1.49,0,0,1,0,.21V77.9h4.33V74a2.28,2.28,0,0,1,2.14-2.47,2.21,2.21,0,0,1,2.33,2A2.3,2.3,0,0,1,41,74V86.4a2.14,2.14,0,0,1-2.29,2.41c-1.39,0-2.16-1-2.16-2.52C36.63,85,36.64,83.74,36.64,82.38Z"/><path class="cls-2" d="M78.88,15.44a2.16,2.16,0,1,1,2.22-2.16v0a2.15,2.15,0,0,1-2.16,2.14Z"/><path class="cls-2" d="M21.12,84.5a2,2,0,1,1-.08,0Z"/><path class="cls-2" d="M21.11,11.12a2.17,2.17,0,0,1,2.15,2.18,2.24,2.24,0,1,1-2.19-2.22Z"/><path class="cls-2" d="M78.85,88.81a2.16,2.16,0,0,1-2.19-2.13v-.05a2.16,2.16,0,0,1,2.19-2.11h0a2.16,2.16,0,1,1,0,4.32Z"/><path class="cls-2" d="M50,30.55a8.64,8.64,0,1,1-9,8.55A8.74,8.74,0,0,1,50,30.55Zm4.34,8.65a4.39,4.39,0,1,0-4.43,4.23,4.36,4.36,0,0,0,4.43-4.23h0Z"/></g></g></g></svg>