<svg xmlns="http://www.w3.org/2000/svg" viewBox="0 0 100 100"><defs><style>.cls-1{fill:none;}.cls-2{fill:#fff;}</style></defs><g id="Capa_2" data-name="Capa 2"><g id="Capa_2-2" data-name="Capa 2"><rect class="cls-1" width="100" height="100"/></g><g id="Capa_1-2" data-name="Capa 1"><g id="Capa_12" data-name="Capa 12"><path class="cls-2" d="M62.29,90.35H38.08v5.1c0,1.48-.57,2-2,2H30.41c-1.52,0-2.08-.58-2.08-2.13v-5A5.23,5.23,0,0,1,23.26,85V7.77a5,5,0,0,1,4.79-5.26H71.12a5.44,5.44,0,0,1,5.61,5.25v.37c-.08,23.71,0,47.41,0,71.11v5.62a5.07,5.07,0,0,1-4.07,5.43l-.59.15v5c0,1.65-.72,2.1-2.28,2.1H64.5c-1.63,0-2.21-.6-2.21-2.25ZM26.64,46.28v38c0,2,.51,2.57,2.56,2.57H70.65c2.16,0,2.63-.48,2.63-2.6V8.49c0-2.14-.49-2.63-2.6-2.63H29.32c-2.21,0-2.71.46-2.71,2.71ZM31.92,94h2.71V90.36H31.92Zm36.5,0V90.36H65.87v3.72Z"/><path class="cls-2" d="M49.94,11.64H66.58c1.65,0,2.24.57,2.24,2.2v9.85c0,1.49-.63,2.13-2.12,2.13H33.22c-1.51,0-2.13-.62-2.13-2.12V13.76c0-1.52.59-2.12,2.11-2.12ZM34.53,22.28h30.8V15.13H34.53Z"/><path class="cls-2" d="M49.84,44.91H33.3c-1.67,0-2.21-.54-2.21-2.2V33.07c0-1.63.53-2.24,2.11-2.24H66.7c1.53,0,2.12.62,2.12,2.13v9.86c0,1.51-.6,2.09-2.12,2.09ZM65.36,34.38H34.55v7.07H65.36Z"/><path class="cls-2" d="M50,69.57a7.65,7.65,0,0,1-7.1-4.45,7.31,7.31,0,0,1,.84-8.06,3.23,3.23,0,0,1,.49-.56,1.71,1.71,0,1,1,2.7,2.1,1.45,1.45,0,0,1-.16.18,4.24,4.24,0,0,0-1.13,3.79,4.37,4.37,0,0,0,8.14,1.36A4.09,4.09,0,0,0,53.3,59c-.89-1.07-.93-2-.13-2.71s1.88-.6,2.71.46a7.32,7.32,0,0,1,1.18,8.14A7.58,7.58,0,0,1,50,69.57Z"/><path class="cls-2" d="M60.8,78.42H54.59a1.72,1.72,0,0,1-2-1.71c0-1,.76-1.68,2-1.68H66.83c1.27,0,2,.61,2,1.65s-.74,1.73-2,1.74Z"/><path class="cls-2" d="M60.8,79.86h6.13c1.22,0,2,.68,1.95,1.72a1.69,1.69,0,0,1-1.73,1.68H54.53a1.7,1.7,0,0,1-1.87-1.51s0-.08,0-.12c0-1,.75-1.71,2-1.71Z"/><path class="cls-2" d="M51.65,56.54v3.6a1.69,1.69,0,0,1-3.37,0h0V53.06a1.7,1.7,0,1,1,3.4,0C51.66,54.22,51.65,55.43,51.65,56.54Z"/></g></g></g></svg>