<svg xmlns="http://www.w3.org/2000/svg" viewBox="0 0 100 100"><defs><style>.cls-1{fill:none;}.cls-2{fill:#fff;}</style></defs><g id="Capa_2" data-name="Capa 2"><g id="Capa_2-2" data-name="Capa 2"><rect class="cls-1" width="100" height="100"/></g><g id="Capa_1-2" data-name="Capa 1"><path class="cls-2" d="M97.5,27.1V72.9c-1.44,3.45-2.71,4.3-6.5,4.3H89.1v8.46A4.1,4.1,0,0,1,85.23,90a2.81,2.81,0,0,1-.41,0H82a4.07,4.07,0,0,1-4.52-3.61,3.94,3.94,0,0,1,0-1V77.26h-5v8.4A4.1,4.1,0,0,1,68.59,90a2.41,2.41,0,0,1-.38,0H65.06a4.08,4.08,0,0,1-4.2-4,1.4,1.4,0,0,1,0-.29V77.24h-5v8.38A4.11,4.11,0,0,1,52,90a3.75,3.75,0,0,1-.58,0H48.64a4.09,4.09,0,0,1-4.48-3.66,4.31,4.31,0,0,1,0-.88V77.26H39.22v8.59a4.09,4.09,0,0,1-4,4.12H31.53a4.1,4.1,0,0,1-4-4.12V77.26h-5v8.5a4.1,4.1,0,0,1-4,4.21,2.25,2.25,0,0,1-.26,0h-3a4.08,4.08,0,0,1-4.46-3.68,4.49,4.49,0,0,1,0-.82V77.19H7.82a5.06,5.06,0,0,1-4.18-2.08A17.06,17.06,0,0,1,2.5,72.9V27.1C4,23.64,5.21,22.8,9,22.8H10.9V14.44A4.1,4.1,0,0,1,14.66,10a3.21,3.21,0,0,1,.62,0h2.79a4.09,4.09,0,0,1,4.52,3.61,4.49,4.49,0,0,1,0,1v8.12h5v-8.5a4.1,4.1,0,0,1,4-4.2H35a4.08,4.08,0,0,1,4.27,3.9,2.28,2.28,0,0,1,0,.37v8.42h4.94V14.34A4.11,4.11,0,0,1,48,10a4.24,4.24,0,0,1,.62,0h2.87a4.08,4.08,0,0,1,4.32,3.84,2.9,2.9,0,0,1,0,.51v8.35h4.92V14.24a4.1,4.1,0,0,1,4-4.21h3.72a4.1,4.1,0,0,1,4,4.12v8.58h5V14.24a4.08,4.08,0,0,1,4-4.21h3.23A4.08,4.08,0,0,1,89,13.73a3.48,3.48,0,0,1,0,.79V22.8h3.11a5,5,0,0,1,4.17,2.06A15.42,15.42,0,0,1,97.5,27.1ZM50,25.59H7.82a2.48,2.48,0,0,0-2.61,2.35V71.78A2.5,2.5,0,0,0,7.56,74.4H92.15A2.49,2.49,0,0,0,94.75,72a2.16,2.16,0,0,0,0-.36q0-21.65,0-43.39a2.55,2.55,0,0,0-2.3-2.74H50Zm-3.09-2.86h6.14V14.07a1.2,1.2,0,0,0-1.15-1.25H48.28a1.21,1.21,0,0,0-1.35,1.06,1.09,1.09,0,0,0,0,.18c0,2.87,0,5.72,0,8.66Zm0,54.5v8.69a1.21,1.21,0,0,0,1.35,1.25h3.1c1.35,0,1.73-.41,1.75-1.8V77.23ZM69.69,22.76V14.13a1.23,1.23,0,0,0-1.07-1.37H65.19c-1.06,0-1.62.54-1.62,1.7v8.3Zm-33.26,0V14.09a1.23,1.23,0,0,0-1.36-1.27H31.83a1.35,1.35,0,0,0-1.5,1.2.89.89,0,0,0,0,.28v8.43ZM63.57,77.23v8.61a1.25,1.25,0,0,0,1.1,1.37,1.13,1.13,0,0,0,.26,0h3.15c1.06,0,1.61-.45,1.61-1.63V77.23Zm-33.22,0v8.7a1.22,1.22,0,0,0,1.18,1.25h3.31c1,0,1.59-.47,1.59-1.63V77.86c0-.21,0-.42-.08-.63ZM80.21,22.72h6.18V14.31a1.34,1.34,0,0,0-1.51-1.49c-1,0-2.16,0-3.24,0A1.24,1.24,0,0,0,80.28,14a.89.89,0,0,0,0,.23v3Zm0,54.51V86c0,.83.61,1.17,1.36,1.17h3.06c1.2,0,1.67-.47,1.69-1.69V77.23ZM19.8,22.77V14c0-.84-.62-1.17-1.35-1.18H15.34c-1.2,0-1.67.48-1.68,1.7v8.25Zm0,54.5H13.66v8.42a1.37,1.37,0,0,0,1.23,1.49h3.53A1.26,1.26,0,0,0,19.78,86V82.8Z"/><path class="cls-2" d="M50,65.1H18.58a3.78,3.78,0,0,1-4.07-2.93,3.56,3.56,0,0,1-.11-.92V53.49c0-1.09.55-1.76,1.36-1.76s1.36.69,1.36,1.77v7.42c0,1.14.28,1.37,1.35,1.45H80.9c1.75,0,1.88-.14,1.88-1.93V53.49c0-1.09.52-1.76,1.35-1.77s1.36.66,1.36,1.74V61a3.79,3.79,0,0,1-3.41,4.13,3.65,3.65,0,0,1-.74,0Z"/><path class="cls-2" d="M50.08,34.9H81.43a3.8,3.8,0,0,1,4.07,3,9,9,0,0,1,.08,1.87v6.08c0,1-.51,1.68-1.35,1.7s-1.43-.64-1.43-1.7V39.22c0-1.28-.26-1.55-1.49-1.55H18.88c-1.63,0-1.79.16-1.79,1.83v6.28c0,1.17-.52,1.83-1.36,1.8s-1.35-.64-1.35-1.75V39a3.81,3.81,0,0,1,3.46-4.13,3.27,3.27,0,0,1,.7,0Z"/><path class="cls-2" d="M60.45,49c-.37,2.21-.76,4.4-1.09,6.63-.1.78-.48.9-1.18.93s-1-.33-1.07-1c-.39-2.33-.79-4.67-1.36-7v6.87c0,.74-.17,1.07-1,1.05s-.93-.34-.93-1V44.93c0-.71.19-1,.95-1,2.12,0,2.11,0,2.43,2.15a53.91,53.91,0,0,0,1.06,5.5c.38-2.26.82-4.49,1.14-6.75.11-.74.4-.93,1.09-.9,2.26.07,2-.36,2,2v9.61c0,.71-.23,1-1,1s-1-.26-1-1V49Z"/><path class="cls-2" d="M39,50.81v4.46c0,1.11-.19,1.29-1.35,1.29s-1.27-.18-1.27-1.37V45.3c0-1.22.1-1.37,1.36-1.3a25.7,25.7,0,0,1,3,.18A2.44,2.44,0,0,1,43,46.27c.22,1.37.36,2.74-.92,3.78a1,1,0,0,0-.24,1.32c.43,1.24.78,2.49,1.19,3.74.18.56.35,1.12-.37,1.37A1.34,1.34,0,0,1,40.82,56a1.45,1.45,0,0,1-.16-.38c-.36-1.37-.69-2.83-1-4.25a5.12,5.12,0,0,0-.25-.65Zm0-1.66c1.23,0,1.63-.48,1.58-1.79S40.23,45.8,39,46Z"/><path class="cls-2" d="M50.61,56.56c-.69.11-1.15-.18-1.19-1,0-.3-.14-.6-.17-.92,0-.69-.48-.73-1-.71s-.84.09-.83.7a3.46,3.46,0,0,1-.13.64c-.25,1.26-.84,1.68-2,1.28a1.1,1.1,0,0,1-.5-.89C45.45,52,46.27,48.38,47,44.74c.2-1,.91-.69,1.5-.75a.86.86,0,0,1,1.07.61.76.76,0,0,1,0,.21c.72,3.47,1.48,6.95,2.22,10.42C52.09,56.41,51.94,56.56,50.61,56.56Zm-1.68-4.35-.53-3.58h-.19l-.48,3.55Z"/></g></g></svg>