<svg xmlns="http://www.w3.org/2000/svg" viewBox="0 0 100 100"><defs><style>.cls-1{fill:none;}.cls-2{fill:#fff;}</style></defs><g id="Capa_2" data-name="Capa 2"><g id="Capa_2-2" data-name="Capa 2"><rect class="cls-1" width="100" height="100"/><g id="Capa_11" data-name="Capa 11"><path class="cls-2" d="M97.5,72.69a14.46,14.46,0,0,1-1.18,2.19,4.76,4.76,0,0,1-3.94,1.91H83.29c-1,0-1.71-.59-1.7-1.37a1.48,1.48,0,0,1,1.66-1.37h8.44c2.17,0,3-.87,3-3.06V9.89c0-2.19-.86-3.07-3-3.07H8.31c-2.17,0-3,.86-3,3.07V70.81c0,2.33.83,3.16,3.12,3.16H76.57a1.36,1.36,0,0,1,1.36,1.37,1.45,1.45,0,0,1-1.36,1.37H63.91c.08.29.12.52.2.73,1.14,3,2.3,5.91,3.41,8.87a1,1,0,0,0,1.14.78h3.43a1.6,1.6,0,0,1,1.82,1.8v5.34c0,1.25-.51,1.77-1.73,1.77H27.82c-1.22,0-1.73-.52-1.73-1.77V88.91c0-1.29.51-1.8,1.8-1.82s2.42,0,3.63,0a1.07,1.07,0,0,0,.8-.41c1.35-3.26,2.53-6.53,3.85-9.94H35c-8.7,0-17.39-.08-26.07,0-3.18,0-5.43-1-6.42-4.11V8.11c.12-.28.24-.56.35-.84A5.11,5.11,0,0,1,7.62,4H92.38a5.11,5.11,0,0,1,4.77,3.27c.11.29.23.56.35.84ZM64.7,87.17a3.1,3.1,0,0,0-.11-.51c-1.2-3.1-2.42-6.18-3.57-9.31-.22-.56-.56-.56-1-.56H40a.94.94,0,0,0-1.07.74c-1.11,2.93-2.25,5.86-3.38,8.79-.09.23-.13.49-.23.81h1.87a1.43,1.43,0,0,1,0,2.86H29v3.14H71.06V90.07H44.57a4.35,4.35,0,0,1-1,0A1.37,1.37,0,0,1,42.3,88.6h0a1.37,1.37,0,0,1,1.29-1.37,7.22,7.22,0,0,1,.93,0H64.7Z"/><path class="cls-2" d="M11.36,12.91V62.2H88.61V12.91H23.29a8.14,8.14,0,0,1-1.21,0A1.36,1.36,0,0,1,21,11.54a1.29,1.29,0,0,1,1-1.37,4.52,4.52,0,0,1,1.1-.12H88c2.44,0,3.57,1.14,3.57,3.6V61.57c0,2.44-1.09,3.53-3.52,3.53H12c-2.43,0-3.52-1.09-3.52-3.53V13.65c0-2.46,1.13-3.6,3.57-3.6h3.53a1.54,1.54,0,0,1,1.73,1.45c0,.85-.66,1.37-1.71,1.37C14.18,12.93,12.8,12.91,11.36,12.91Z"/><path class="cls-2" d="M50,59H16.61c-1.79,0-2.14-.37-2.15-2.2V52c0-1.6.46-1.93,1.87-1.93H83.67c1.36,0,1.85.48,1.86,1.86V57.2c0,1.37-.5,1.82-1.87,1.82ZM17.33,56.15H82.57V53.07H17.32v3.08Z"/><path class="cls-2" d="M24.21,27c-.69-1.15-1.26-2.15-1.87-3.11a1.54,1.54,0,0,1,.22-2.15l0,0c.81-.81,1.62-1.63,2.42-2.45a1.51,1.51,0,0,1,2.09-.24L30.21,21c.3-1.25.61-2.37.86-3.51a1.51,1.51,0,0,1,1.64-1.37h3.38c1.11,0,1.52.33,1.8,1.48s.51,2.16.8,3.42L41,19.63c2-1.21,2-1.2,3.61.4.57.58,1.14,1.14,1.7,1.73a1.55,1.55,0,0,1,.34,2.16l-.07.08c-.58,1-1.18,2-1.86,3.08l3.12.74c1.48.36,1.76.71,1.77,2.26v2.74c0,1.37-.31,1.75-1.63,2.08l-3.24.77c.62,1,1.15,1.91,1.69,2.8.78,1.28.72,1.7-.34,2.74l-2,2a1.52,1.52,0,0,1-2.13.41l-.17-.13-3-1.86L37.93,45c-.29,1.28-.67,1.6-2,1.61H32.68a1.52,1.52,0,0,1-1.63-1.37c-.23-1.12-.53-2.23-.84-3.5-.49.28-.93.52-1.35.78s-1.23.74-1.82,1.12a1.47,1.47,0,0,1-2-.26c-.83-.83-1.66-1.68-2.5-2.51a1.5,1.5,0,0,1-.23-2.1c.62-1,1.22-2,1.9-3.14l-3.15-.75c-1.42-.34-1.68-.66-1.68-2.11V29.48A1.37,1.37,0,0,1,20.56,28h0ZM42.54,22,40,23.54a2.86,2.86,0,0,1-3.88-1.23,2.62,2.62,0,0,1-.19-.46c-.23-1-.45-1.91-.68-2.9q-.31,0-.63,0c-.77-.11-1.22.11-1.35,1a17,17,0,0,1-.44,2,2.92,2.92,0,0,1-3.74,1.76l-.21-.09c-.87-.52-1.72-1.07-2.58-1.6l-1.22,1.15c.56.9,1.08,1.74,1.58,2.6a2.91,2.91,0,0,1-1.29,3.89,2.07,2.07,0,0,1-.34.15c-1,.25-1.9.45-2.89.68v1.78c1,.24,1.95.44,2.9.69a2.93,2.93,0,0,1,1.75,3.75,2.18,2.18,0,0,1-.09.23c-.52.88-1.06,1.74-1.62,2.66l1.2,1.16c.89-.55,1.73-1.12,2.63-1.61a2,2,0,0,1,1.29-.31c1.42.39,2.78.94,2.82,2.74a4.45,4.45,0,0,0,.19.82c.31,1.37.31,1.37,1.74,1.37a1.38,1.38,0,0,0,.27-.08c.23-1,.45-2,.72-3a2.92,2.92,0,0,1,3.83-1.6c.89.53,1.77,1.09,2.59,1.6l1.26-1.14L42.1,37.05a2.88,2.88,0,0,1,1.21-3.88,2.83,2.83,0,0,1,.57-.23l2.71-.64V30.45l-2.71-.64A2.89,2.89,0,0,1,42,26.22a2.36,2.36,0,0,1,.21-.52l1.56-2.57Z"/><path class="cls-2" d="M68.43,30.78H80.79a2.27,2.27,0,0,1,1.06.15,2.65,2.65,0,0,1,.9,1.37,1.2,1.2,0,0,1-1.11,1.28h0a8.51,8.51,0,0,1-1,0H68.5c-.56,2.54-1.44,3.25-4,3.25H63.39c-2.87,0-3.51-.46-4.35-3.25H55.12a2.34,2.34,0,0,1-1.5-.72c-.7-.91.09-2.09,1.36-2.12s2.72,0,4.07,0A10.34,10.34,0,0,1,59.66,29a2.81,2.81,0,0,1,2.55-1.44h2.88a3.08,3.08,0,0,1,3.33,2.83C68.43,30.54,68.43,30.66,68.43,30.78ZM65.53,34V30.49H62.12V34Z"/><path class="cls-2" d="M65.73,19.35a3.11,3.11,0,0,1,3-3.26,3.53,3.53,0,0,1,.46,0h2.14c2.43,0,3.31.74,3.81,3.25h6.26a1.21,1.21,0,0,1,1.36,1,2.62,2.62,0,0,1-.57,1.5c-.17.22-.68.25-1,.25h-6a11.65,11.65,0,0,1-.48,1.52,2.72,2.72,0,0,1-2.48,1.74h-3a3.12,3.12,0,0,1-3.48-2.71,2.9,2.9,0,0,1,0-.51H55A1.42,1.42,0,0,1,53.39,21a.66.66,0,0,1,0-.14c0-.82.64-1.37,1.63-1.37ZM68.66,19v3.48h3.42V19Z"/><path class="cls-2" d="M69.49,40.25A12,12,0,0,1,70.85,38c1.07-1.06,5.78-1.1,6.86,0a11.28,11.28,0,0,1,1.48,2.32l-.15.17h2.21a1.37,1.37,0,0,1,0,2.74H79.06c-.56,2.56-1.36,3.24-4,3.24H72.87a3,3,0,0,1-3.1-2.74,3.13,3.13,0,0,0-.12-.49H55.2c-1.16,0-1.81-.51-1.82-1.37s.65-1.37,1.79-1.37H69.62Zm3.15,3.36H76.1V40.18H72.64Z"/><path class="cls-2" d="M39.78,31.33a5.34,5.34,0,1,1-5.32-5.4h0A5.46,5.46,0,0,1,39.78,31.33ZM32,31.24a2.41,2.41,0,0,0,2.25,2.55h.11A2.48,2.48,0,1,0,32,31.22Z"/></g></g></g></svg>