<svg xmlns="http://www.w3.org/2000/svg" viewBox="0 0 100 100"><defs><style>.cls-1{fill:none;}.cls-2{fill:#fff;}</style></defs><g id="Capa_2" data-name="Capa 2"><g id="Capa_2-2" data-name="Capa 2"><rect class="cls-1" width="100" height="100"/><g id="Capa_5" data-name="Capa 5"><path class="cls-2" d="M97.5,22.41V81H2.5V22.43H43.6c.09-1-.3-2.25,1.58-2.27s1.58,1.28,1.66,2.24h1.44c.13-.95-.2-2.21,1.64-2.24s1.59,1.31,1.73,2.22h1.52V19H88v3.4h1.49c0-1-.23-2.21,1.6-2.24s1.59,1.27,1.72,2.25ZM37.33,51.79H34.21c-.15,1.75-.5,2.31-1.58,2.28-2-.06-1.61-1.31-1.8-2.33H27.7V24.91H24.61V44.78H21.56c-.25,1.8-.62,2.35-1.68,2.28-1.93-.14-1.58-1.32-1.7-2.33H15.05V24.91H5.67v3.4H8.52a1.6,1.6,0,0,1,1.8,1.14h0c0,.68-.71,1.18-1.85,1.2s-1.9,0-2.88,0v1.16H8.23A4.14,4.14,0,0,1,9.6,32c.63.22.94.75.72,1.24a1.59,1.59,0,0,1-1.64.91h-3v1.13h3a1.46,1.46,0,0,1,1.59,1c.14.52-.25,1-.91,1.22a4.9,4.9,0,0,1-1.27.14H5.63V61.08H8.47c1.14,0,1.9.48,1.9,1.17s-.73,1.16-1.89,1.17H5.67v1.15H8.49c1.16.05,1.9.56,1.86,1.23S9.57,66.94,8.4,67H5.67v1.16H8.51c1.14,0,1.89.5,1.88,1.2s-.71,1.12-1.81,1.17H5.63v1.11H8.55a1.54,1.54,0,0,1,1.76,1.1.41.41,0,0,1,0,.11c0,.69-.74,1.19-1.88,1.2H5.66v1.14c.91,0,1.82,0,2.72,0a3.25,3.25,0,0,1,1.6.54,1.09,1.09,0,0,1,.16,1.12c-.19.55-.91.7-1.62.72H5.62v1.09H94.26V24.91H37.33ZM31.08,24.91V49.34H34V24.91Zm-12.7,0V42.29h3V24.91Zm66.38-3.56h-3v1h3Zm-22.05,1h3v-1h-3Zm-3.35.05v-1h-3v1Zm9.7,0h3v-1h-3Zm9.37,0v-1h-3v1Z"/><path class="cls-2" d="M88.05,76.31H43.65V74.05c-1.36-.16-3.17.28-3.12-1.28s1.81-1,3-1.16V69.39c-1.2-.19-3.06.27-3-1.27s1.84-1,3-1.22V64.71c-1.24-.18-3.16.24-3-1.34.1-1.38,1.79-1,3-1.17V60.07c-1.24-.17-3.1.22-3-1.31s1.79-1,3.07-1.21V55.28H88v2.06c.93.19,1.84.43,2.73.7.24.09.38.53.38.8,0,.8-.71,1-3.13,1.17v2.18c1.36.15,3.14-.18,3.09,1.31s-1.7,1.11-3,1.17v2.24c1.24.12,3.05-.23,3.05,1.22s-1.77,1.14-3.05,1.23v2.27c1.27.1,3.11-.28,3,1.24S89.34,74,88.05,74Zm-36.42-7H80V67.06H51.63ZM80,71.73H51.68v2.21H80ZM51.65,59.85H80V57.67H51.65ZM80,62.35H51.66v2.2H80ZM84.75,74V71.72H83.29V74Zm0-4.68V67H83.31v2.24Zm0-6.93H83.31v2.2h1.44Zm0-2.49V57.68H83.29v2.18ZM48.27,69.27V67H46.91v2.24Zm0,4.7V71.71H46.91V74ZM46.91,62.34v2.21h1.36V62.34Zm0-4.67v2.18h1.36V57.67Z"/><path class="cls-2" d="M53.12,40c0-3,.11-6.13,0-9.18-.24-1.9,1.65-3.58,4.22-3.75a5.41,5.41,0,0,1,.9,0c6.62.05,13.24,0,19.86,0,2,0,3.9-.07,5.85,0,2.33.05,4.17,1.5,4.1,3.22,0,.05,0,.11,0,.16V49.42c.18,1.76-1.62,3.29-4,3.42H58.16a8.75,8.75,0,0,1-2.72-.42,2.93,2.93,0,0,1-2.25-2.79Q53.12,44.89,53.12,40ZM70.49,50.55H83.21c1.25,0,1.59-.23,1.59-1.18V30.7c0-.94-.32-1.17-1.59-1.17H58c-1.37,0-1.67.24-1.67,1.2v18.6c0,1,.36,1.22,1.65,1.22Z"/><path class="cls-2" d="M34.21,69.33v1.12h1.36a1.61,1.61,0,0,1,1.78,1.16c0,.68-.77,1.23-1.69,1.22h0c-.49,0-1,0-1.46,0v2.31H21.43V72.9c-1.36-.12-3,.16-3.16-1.27-.09-.78.64-1,3.07-1.24v-.51a4.51,4.51,0,0,0,0-.52c-1.36-.08-3.11.21-3.05-1.29.07-1.33,1.71-1.1,3.05-1.14V64.64H34.12V66.9a12.09,12.09,0,0,1,1.62.07,1.46,1.46,0,0,1,1.56,1.14c0,.65-.71,1.18-1.59,1.2C35.23,69.35,34.74,69.33,34.21,69.33Zm-3.38,3.42V67h-6.1v5.71Z"/><path class="cls-2" d="M13.56,57.57V49.44h11.1V57c0,.38,0,.66-.69.65H14.05Zm7.81-5.76H16.79v3.36h4.58Z"/><path class="cls-2" d="M42.07,42.39c-.87,0-1.57-.52-1.58-1.17S41.14,40.05,42,40h0c.88.06,1.53.64,1.45,1.29A1.44,1.44,0,0,1,42,42.39Z"/><path class="cls-2" d="M45.21,37.61A1.55,1.55,0,0,1,47,36.54h0c.83.08,1.44.63,1.36,1.25a1.5,1.5,0,0,1-1.69,1.07C45.82,38.8,45.17,38.25,45.21,37.61Z"/><path class="cls-2" d="M48.46,44.73c0,.65-.75,1.16-1.62,1.15s-1.63-.52-1.65-1.18h0a1.55,1.55,0,0,1,1.75-1.07,1.44,1.44,0,0,1,1.45,1.07Z"/><path class="cls-2" d="M91.18,45.88c-.87,0-1.59-.51-1.62-1.15s.71-1.16,1.58-1.19a1.48,1.48,0,0,1,1.61,1.16c0,.64-.68,1.16-1.54,1.18Z"/><path class="cls-2" d="M8.79,49.41c.85,0,1.52.55,1.53,1.18A1.52,1.52,0,0,1,8.7,51.75c-.87,0-1.56-.54-1.55-1.18s.67-1.15,1.53-1.16Z"/><path class="cls-2" d="M27.78,62.3c-.89,0-1.59-.57-1.58-1.22s.71-1.17,1.58-1.18,1.59.5,1.61,1.15v0c0,.66-.7,1.21-1.61,1.22Z"/><path class="cls-2" d="M24.62,61.08A1.46,1.46,0,0,1,23,62.26a1.53,1.53,0,0,1-1.61-1.18A1.48,1.48,0,0,1,23,59.9C23.89,59.91,24.61,60.43,24.62,61.08Z"/><path class="cls-2" d="M43.64,36.53c0,.64-.74,1.16-1.61,1.16s-1.56-.53-1.55-1.17v0c0-.64.72-1.15,1.59-1.16A1.47,1.47,0,0,1,43.64,36.53Z"/><path class="cls-2" d="M46.79,42.39A1.54,1.54,0,0,1,45,41.32c-.08-.65.57-1.23,1.45-1.29h.3c.87,0,1.58.54,1.58,1.18A1.49,1.49,0,0,1,46.79,42.39Z"/><path class="cls-2" d="M10.32,47.14a1.57,1.57,0,0,1-1.78,1.07h0c-.83-.08-1.44-.62-1.36-1.24S8,45.83,8.87,45.88H9C9.77,46,10.35,46.53,10.32,47.14Z"/><path class="cls-2" d="M34.14,61.08a1.52,1.52,0,0,1-1.6,1.18c-.87,0-1.56-.54-1.57-1.18s.7-1.17,1.57-1.18S34.12,60.43,34.14,61.08Z"/><path class="cls-2" d="M8.82,52.9a1.49,1.49,0,0,1,1.5,1.22,1.49,1.49,0,0,1-1.59,1.13c-.88,0-1.56-.56-1.53-1.2h0A1.49,1.49,0,0,1,8.82,52.9Z"/><path class="cls-2" d="M46.79,33a1.52,1.52,0,0,1,1.67,1.17c0,.64-.71,1.16-1.58,1.17s-1.59-.51-1.62-1.15A1.5,1.5,0,0,1,46.79,33Z"/><path class="cls-2" d="M91.18,35.34c.87,0,1.55.55,1.55,1.19s-.7,1.16-1.56,1.16h0c-.87,0-1.57-.55-1.58-1.19A1.52,1.52,0,0,1,91.18,35.34Z"/><path class="cls-2" d="M46.74,49.41a1.49,1.49,0,0,1-1.55-1.22,1.5,1.5,0,0,1,1.66-1.12c.88,0,1.56.56,1.53,1.21h0A1.53,1.53,0,0,1,46.74,49.41Z"/><path class="cls-2" d="M48.46,51.71c0,.65-.69,1.18-1.57,1.19a1.48,1.48,0,0,1-1.63-1.14A1.54,1.54,0,0,1,47,50.69a1.44,1.44,0,0,1,1.45,1.07Z"/><path class="cls-2" d="M80.08,33v2.33h3.08v2.41h-3v1.13h3v2.33H80.13v1.16h3.05v2.41h-3.1v2.34H76.92v2.3H73.74V47.12H72.23v2.25H69V47.13H67.45v2.24h-3.2V47.11H61.07V44.77H58V42.36h3V41.22H57.91V38.86H61V37.75H58V35.34h3.1V33h3.18V30.68h3.16V33h1.45V30.68h3.26V33h1.53V30.7h3.17V33Zm-3.22,2.47H64.32v9.19H76.86Z"/></g></g></g></svg>