<svg xmlns="http://www.w3.org/2000/svg" viewBox="0 0 100 100"><defs><style>.cls-1{fill:none;}.cls-2{fill:#fff;}</style></defs><g id="Capa_2" data-name="Capa 2"><g id="Capa_2-2" data-name="Capa 2"><rect class="cls-1" width="100" height="100"/><g id="Capa6"><path class="cls-2" d="M74,41.57A24.29,24.29,0,0,0,54.64,21.69c-.76-.14-.9-.43-.87-1.09V16.79a1.47,1.47,0,0,0-1.29-1.62h-1a8.74,8.74,0,0,1,6.6-9.45c4.15-.9,8.49-.34,12.74-.3a1.28,1.28,0,0,1,.39,0,25.21,25.21,0,0,0-.11-2.89,5.57,5.57,0,0,0-1,0H60.41a11.79,11.79,0,0,0-11.55,9.33,31.29,31.29,0,0,0-.39,3.28,1.59,1.59,0,0,1-.38.07c-1.67.15-1.9.42-1.9,2.12v3.5c0,.57-.17.77-.75.93a30.57,30.57,0,0,0-5.31,1.66C31.19,27.61,26,34.68,25.68,44.69s-.08,19.57,0,29.37a19,19,0,0,0,.39,3.36A24.4,24.4,0,0,0,74.49,73V46.21A30,30,0,0,0,74,41.57ZM51.42,24.2a16.51,16.51,0,0,1,5.72,1.1A20.94,20.94,0,0,1,66.65,32,2.18,2.18,0,0,1,67,33.38c-.45,4-.93,8-1.39,12a3.28,3.28,0,0,1-3.13,3c-3.65.1-7.3,0-11.06,0v-6A1.35,1.35,0,0,1,52,41.5,4.07,4.07,0,0,0,53.84,38V33.67A4,4,0,0,0,52,30.14a1.2,1.2,0,0,1-.51-.83C51.39,27.7,51.42,26,51.42,24.2Zm-2.33-6.12H50.9v3.09H49.09ZM49,35.84V33.62c0-.65.39-1.08,1-1a1.08,1.08,0,0,1,.92.9,34.52,34.52,0,0,1,0,4.77,1.36,1.36,0,0,1-1,.94c-.63.1-.9-.44-.9-1ZM34.43,30.7A21.65,21.65,0,0,1,47,24.28c.47-.08,1-.07,1.57-.11v5.39c0,.23-.29.5-.51.64a3.79,3.79,0,0,0-1.85,3.33v4.69A3.8,3.8,0,0,0,48,41.57a1.07,1.07,0,0,1,.52.72v6.12c-3.79,0-7.46.07-11.07,0a3.08,3.08,0,0,1-3-2.89c-.52-3.63-.81-7.28-1.39-10.88A4.15,4.15,0,0,1,34.43,30.7ZM71.55,72.43a21.57,21.57,0,0,1-42.74,4.48,26.6,26.6,0,0,1-.39-4.46V45a17.32,17.32,0,0,1,2-8c.4,3.1.72,6.22,1.23,9.3a6,6,0,0,0,5.94,4.94H62.36a6.14,6.14,0,0,0,6-5.42l1.08-8.61.17-.17a6.14,6.14,0,0,1,.37.72,21.73,21.73,0,0,1,1.53,8.32Z"/><path class="cls-2" d="M60.39,89.22c-.41-.4-1-.72-1.09-1.13a2.28,2.28,0,0,1,.51-1.65c.85-.93,1.95-1.63,2.77-2.59a33,33,0,0,0,2.53-3.8c.58-1,1.39-1.38,2.11-.9a1.53,1.53,0,0,1,.45,2.16,19.22,19.22,0,0,1-6,7.22A9.3,9.3,0,0,1,60.39,89.22Z"/></g></g></g></svg>