<svg xmlns="http://www.w3.org/2000/svg" viewBox="0 0 100 100"><defs><style>.cls-1{fill:none;}.cls-2{fill:#fff;}</style></defs><g id="Capa_2" data-name="Capa 2"><g id="Capa_2-2" data-name="Capa 2"><rect class="cls-1" width="100" height="100"/><g id="Capa_7" data-name="Capa 7"><path class="cls-2" d="M97.45,63.79a22.6,22.6,0,0,1-1.66,3.77,9.31,9.31,0,0,1-8.16,4.15h-4.4v8.78c0,1.47-.5,2-2,2H69.33c-1.44,0-1.94-.51-2-1.9V71.78H61.08v8.78c0,1.33-.55,1.94-1.94,1.94h-34c-1.69,0-2.14-.45-2.14-2.1V71.76H15.17v8.91c0,1.18-.6,1.82-1.61,1.82S12,81.82,12,80.67V74.81H7.76c-1.49,0-2-.56-2-2V61.26c0-1.48.53-2,2.06-2h4.07V56.18H7.14a1.46,1.46,0,0,1-1.51-1.33,1.51,1.51,0,0,1,1.07-1.7,2.89,2.89,0,0,1,.83,0h4.31V50H7.56c-1.36,0-1.91-.55-1.91-1.88V36.43c0-1.33.53-1.92,2-1.93h4.3v-3H7.33a1.58,1.58,0,1,1,0-3.16h4.6V20.61H4.15A1.54,1.54,0,0,1,2.5,19.2V19A1.46,1.46,0,0,1,3.91,17.5h9.71c1.07,0,1.64.73,1.63,1.87v5.83H87.4A9.61,9.61,0,0,1,97,31.62c.18.5.32,1,.48,1.54ZM15.29,68.53H87.53a6.52,6.52,0,0,0,6.79-6.24V35A6.46,6.46,0,0,0,88,28.31h-.49q-35.65.07-71.3,0h-.94Zm42.5,3.29H26.3v7.52h4.64V76.68a2.08,2.08,0,0,1,.45-1.33A2.49,2.49,0,0,1,33,74.89c.8.09,1.13.78,1.14,1.54v2.93h3.12V76.52a1.57,1.57,0,0,1,1.34-1.81A1.61,1.61,0,0,1,40.47,76a1.4,1.4,0,0,1,0,.5v2.79h3.16V76.48a1.61,1.61,0,0,1,1.45-1.76h.12a1.63,1.63,0,0,1,1.6,1.82v2.81H50v-2.9a1.59,1.59,0,0,1,3.17-.29,1.41,1.41,0,0,1,0,.29v2.88h4.66Zm19,7.52H79.9V71.83H70.59v7.51h3.12V76.48a1.59,1.59,0,0,1,3.16-.29,1.41,1.41,0,0,1,0,.29c0,.94,0,1.87,0,2.86ZM8.88,37.68v9.17h3V37.68Zm0,24.75v9.15h3V62.43Z"/><path class="cls-2" d="M73.65,65.5a17.06,17.06,0,1,1,17.48-17v.4A17.29,17.29,0,0,1,73.65,65.5ZM60.39,53.32c.23-.45.38-.75.54-1a10,10,0,0,1,5.63-5c1.09-.33,1.24-1,1.44-1.82-2.64-1.32-6.36-.13-8.15,1.33a1.16,1.16,0,0,0-.3.72A13.07,13.07,0,0,0,60.39,53.32Zm19-1.93c2.5,1.33,6.35.17,8.16-1.33a.76.76,0,0,0,.21-.37c.32-1.09-.1-5.16-.89-5.94-.15.31-.3.6-.46.89a10,10,0,0,1-5.29,4.82,2.16,2.16,0,0,0-1.73,2Zm-.78,10.09-1-.56a10,10,0,0,1-5-5.32,2.15,2.15,0,0,0-1.9-1.51.8.8,0,0,0-.15.18,8.38,8.38,0,0,0,1.5,7.85,1.17,1.17,0,0,0,.65.26A14.29,14.29,0,0,0,78.63,61.48Zm1.26-14.89c.2-.08.38-.12.54-.2a8.38,8.38,0,0,0,4.22-6.16,1.1,1.1,0,0,0-.2-.84,13.3,13.3,0,0,0-4.67-3.52V36a2.82,2.82,0,0,0,.23.77,9.74,9.74,0,0,1-.24,7.33A2,2,0,0,0,79.89,46.59ZM71.8,42.41a8.44,8.44,0,0,0-6.71-4.72.8.8,0,0,0-.52.13,13.43,13.43,0,0,0-3.75,4.81l1.11-.3a10.21,10.21,0,0,1,7.22.24A2.21,2.21,0,0,0,71.8,42.41Zm-4.26,8a3.17,3.17,0,0,0-.44.12,8.25,8.25,0,0,0-4.33,6.25,1,1,0,0,0,.16.75,13,13,0,0,0,4.87,3.58c-.14-.4-.24-.69-.32-1a9.65,9.65,0,0,1,.25-7.24,2,2,0,0,0-.18-2.54Zm1.36-15c0,.1,0,.14.06.16l.72.4a10,10,0,0,1,5.06,5.31,2.14,2.14,0,0,0,1.94,1.65c1.23-2.13.37-6-1.36-8a1,1,0,0,0-.65-.24,14.25,14.25,0,0,0-5.76.71Zm6.65,19.16a8.35,8.35,0,0,0,5.09,4.32A2.59,2.59,0,0,0,84,58.08a16.77,16.77,0,0,0,2.54-3.81l-1.15.32a10.07,10.07,0,0,1-7.13-.24,2.22,2.22,0,0,0-2.71.18Zm-1.84-3.15a3,3,0,1,0-3.16-3,3,3,0,0,0,3.16,3Z"/><path class="cls-2" d="M35.82,31.39a17.05,17.05,0,1,1-.2,34.1A17.24,17.24,0,0,1,18.29,48.34v-.26A17.32,17.32,0,0,1,35.82,31.39Zm5.6,19.93c2.49,1.33,6.41.19,8.15-1.32a.77.77,0,0,0,.26-.46,13,13,0,0,0-.84-6c-.25.46-.4.74-.56,1A9.92,9.92,0,0,1,43,49.44a2.21,2.21,0,0,0-1.58,2ZM40.5,61.49c0-.12,0-.16-.09-.17l-.8-.44a9.85,9.85,0,0,1-5-5.32,2.17,2.17,0,0,0-1.89-1.47.14.14,0,0,0-.13.12c-1.13,2.42-.16,5.95,1.48,8a1,1,0,0,0,.64.27,14.27,14.27,0,0,0,5.75-.92ZM29.63,61a.34.34,0,0,0,.06-.12L29.5,60a9.78,9.78,0,0,1,.27-7.27,2.09,2.09,0,0,0-.2-2.49,3.91,3.91,0,0,0-.65.24,8.46,8.46,0,0,0-4.16,6.24,1,1,0,0,0,.19.74A13.57,13.57,0,0,0,29.67,61Zm-6.8-18.54c.08,0,.12.1.14.08l.88-.22a10.32,10.32,0,0,1,7.32.26,2.16,2.16,0,0,0,2.56-.17v-.09a8.66,8.66,0,0,0-6.8-4.65.83.83,0,0,0-.5.14,13.28,13.28,0,0,0-3.52,4.69Zm15.85.38a8.21,8.21,0,0,0-1.36-8,1.18,1.18,0,0,0-.45-.28,12.35,12.35,0,0,0-6,.91l.82.42a10.16,10.16,0,0,1,5,5.23c.43,1,.87,1.67,2.06,1.74Zm3.13,3.76a4.39,4.39,0,0,0,.63-.26A8.36,8.36,0,0,0,46.61,40a.82.82,0,0,0-.08-.51,13.71,13.71,0,0,0-5-3.75c.15.47.26.75.34,1a9.6,9.6,0,0,1-.3,7.31,2.09,2.09,0,0,0,.32,2.5ZM29.94,45.48c-2.43-1.33-6.32-.2-8.16,1.33a.76.76,0,0,0-.21.37,11.32,11.32,0,0,0,.87,5.94h0c.15-.27.28-.55.43-.8a10.11,10.11,0,0,1,5.37-4.88c1.05-.35,1.67-.85,1.78-1.92Zm7.72,9.06a11.19,11.19,0,0,0,.65,1.17,9.32,9.32,0,0,0,4.78,3.23,2.32,2.32,0,0,0,2.72-.71,14.21,14.21,0,0,0,2.72-4l-1.13.32a10.13,10.13,0,0,1-7-.22A2.17,2.17,0,0,0,37.66,54.54Zm-2-3.11a3,3,0,1,0-3.1-3,3.06,3.06,0,0,0,3.1,3Z"/></g></g></g></svg>