<svg xmlns="http://www.w3.org/2000/svg" viewBox="0 0 100 100"><defs><style>.cls-1{fill:none;}.cls-2{fill:#fff;}</style></defs><g id="Capa_2" data-name="Capa 2"><g id="Capa_2-2" data-name="Capa 2"><rect class="cls-1" width="100" height="100"/><path class="cls-2" d="M35.54,50.4V35.27c0-2.54,1.15-3.71,3.62-3.71H68.8c2.48,0,3.65,1.23,3.65,3.8V65.52a3.37,3.37,0,0,1-2.77,3.84,3.15,3.15,0,0,1-1,0H39.27c-2.55,0-3.73-1.2-3.73-3.83ZM68.11,36H39.85V64.9H68.11Z"/><path class="cls-2" d="M33.43,59.56v2.08H21.17c-2.09,0-3,1-3,3.13,0,5.78.07,11.55.15,17.31a1.55,1.55,0,0,0,.55,1,3.22,3.22,0,0,1,1.38,3.57,3.07,3.07,0,0,1-3.8,2.17,3.11,3.11,0,0,1-2.11-2.17,3,3,0,0,1,1.38-3.56A1.15,1.15,0,0,0,16.28,82q-.09-8.46-.14-16.94c0-3.73,1.71-5.55,5.38-5.55Z"/><path class="cls-2" d="M33.5,38.69v2a1.11,1.11,0,0,1-.3.08H19.41a4.39,4.39,0,0,1-4.14-4.33V34a2.55,2.55,0,0,0-2.2-2.83,2.62,2.62,0,0,0-.56,0h-2c-1.07,0-2-.08-2.76,1.1a2.84,2.84,0,0,1-4.07.32,3,3,0,0,1-.39-.41,3.17,3.17,0,0,1,.22-4.39l.17-.15A3,3,0,0,1,7.89,28a3.46,3.46,0,0,1,.22.31,1.38,1.38,0,0,0,1.5.77h3a4.54,4.54,0,0,1,4.69,4.4V36a2.46,2.46,0,0,0,2.21,2.68,1.62,1.62,0,0,0,.44,0Z"/><path class="cls-2" d="M81.22,22h-3.4c-1,0-1.38-.35-1.38-1.41v-9c0-.75.27-1.32,1.06-1.3s1,.59,1,1.32v8.29h3.42c1,0,1.38.37,1.38,1.41V35.09c0,.71-.2,1.41-1,1.41H74.38v-2h6.8Z"/><path class="cls-2" d="M41.57,29.47H39.75c0-.1-.12-.15-.12-.21a4.93,4.93,0,0,0-2.06-4.41c-.8-.72-1.5-1.54-2.27-2.28a5.89,5.89,0,0,1-1.8-4.4V10.56a1.55,1.55,0,0,0-.55-1,3.28,3.28,0,0,1-1.38-3.7,3.15,3.15,0,0,1,3-2.16,3.12,3.12,0,0,1,3,2.23,3.27,3.27,0,0,1-1.38,3.67,1.42,1.42,0,0,0-.52,1v7.7A3.74,3.74,0,0,0,36.83,21c1.11,1.09,2.18,2.23,3.27,3.33A5.74,5.74,0,0,1,41.57,29.47Z"/><path class="cls-2" d="M65.16,71.34h2v9a4.49,4.49,0,0,1-1.55,3.76,6.12,6.12,0,0,0-2.41,6c.08.72.08,1.25.81,1.73a3.09,3.09,0,0,1,.8,4.23,2,2,0,0,1-.25.33,3,3,0,0,1-4.35.35c-.08-.06-.15-.14-.23-.21a3.08,3.08,0,0,1,0-4.29,3.42,3.42,0,0,1,.4-.36,1.75,1.75,0,0,0,.83-1.8V89.2a6.44,6.44,0,0,1,2.46-6.1,4.09,4.09,0,0,0,1.53-3.63C65.07,76.82,65.16,74.09,65.16,71.34Z"/><path class="cls-2" d="M81.16,61.62H74.44v-2h7.38c1.13,0,1.38.26,1.38,1.41v9H93.4a4.69,4.69,0,0,1,.75,0c.59.14,1,.54.85,1.14-.12.39-.63.89-1,.89H82.18c-.87,0-1-.66-1-1.41v-9Z"/><path class="cls-2" d="M63.46,29.47H61.39V15.25c0-1.41.28-1.61,1.61-1.61h2.16V3.76c0-.75.26-1.27,1.07-1.26s1,.54,1,1.24V14.4c0,1-.36,1.3-1.38,1.33h-2.4Z"/><path class="cls-2" d="M89.16,51.24H74.42V49.18H88.36a1,1,0,0,0,1.1-.6,3,3,0,0,1,3.46-1.42A3.17,3.17,0,0,1,95.12,51a3.14,3.14,0,0,1-2,2.19,3,3,0,0,1-3.6-1.3C89.4,51.68,89.32,51.53,89.16,51.24Z"/><path class="cls-2" d="M74.42,40.84V38.69H87V34.17c0-1.24.33-1.59,1.56-1.59h7.81a1,1,0,0,1,1.13,1c0,.75-.48,1.06-1.16,1.07H89.06v4.51c0,1.25-.26,1.53-1.48,1.53Z"/><path class="cls-2" d="M67.18,24.46v5h-2v-5.8a1.12,1.12,0,0,1,.92-1.29,1,1,0,0,1,.35,0h5.51V8.5c0-1,.36-1.54,1-1.41A1.26,1.26,0,0,1,74,8.5V23c0,1.1-.35,1.41-1.38,1.41Z"/><path class="cls-2" d="M39.65,71.37h2V81.43a3.58,3.58,0,0,1-3.06,4,3,3,0,0,1-.9,0H33.23c-1.52,0-2,.48-2,2V91a1,1,0,1,1-2,.24,1,1,0,0,1,0-.24,45.18,45.18,0,0,1,.11-4.8,3.13,3.13,0,0,1,3-2.83c1.75-.11,3.52,0,5.27-.07s2-.41,2-2.06V72.43A9.05,9.05,0,0,0,39.65,71.37Z"/><path class="cls-2" d="M33.53,34.46v2.23a27.49,27.49,0,0,1-4.33-.5,4.38,4.38,0,0,1-2.94-4.42V27.83a1.54,1.54,0,0,0-.52-1,3.23,3.23,0,0,1-1.12-4.35,3.08,3.08,0,0,1,4.25-1.14,3.22,3.22,0,0,1,0,5.49,1.31,1.31,0,0,0-.5.86v3.94a2.55,2.55,0,0,0,2.22,2.83,2.29,2.29,0,0,0,.64,0Z"/><path class="cls-2" d="M76.44,66.41h-2V64.35c1.07,0,2.16-.07,3.24,0,.72,0,.81.66.81,1.3V83.5c0,.73-.07,1.41-1,1.41s-1.07-.41-1.07-1.41Z"/><path class="cls-2" d="M33.5,64.32v2a5.51,5.51,0,0,1-.71.08H28.74c-1.51,0-2,.47-2,2v4.43c0,1.47.47,2,1.89,2h1.79c.59,0,1.19.24,1.2,1s-.5,1-1.19,1.06-1.55,0-2.34,0a3.47,3.47,0,0,1-3.38-3.45q-.12-2.88,0-5.78a3.43,3.43,0,0,1,3.42-3.38C29.9,64.28,31.65,64.32,33.5,64.32Z"/><path class="cls-2" d="M45.85,29.46H43.93a6.17,6.17,0,0,1-.07-.74V10c.29-.35.54-.9.91-1a1,1,0,0,1,1.1.89,9.9,9.9,0,0,1,0,1.54V29.48Z"/><path class="cls-2" d="M52.92,71.37h1.95a2.78,2.78,0,0,1,.11.5V86c0,.73-.29,1.21-1,1.21s-1-.52-1-1.23Z"/><path class="cls-2" d="M55,29.47H53V15.12a2.72,2.72,0,0,1,0-.57,1,1,0,0,1,1-.91l.09,0a.91.91,0,0,1,.91.91s0,.08,0,.12V29.47Z"/><path class="cls-2" d="M33.43,49.24v2c-.24,0-.48.06-.73.07H19.5a2.09,2.09,0,0,1-1.07-.23,1,1,0,0,1-.2-1.4.94.94,0,0,1,.39-.32,2,2,0,0,1,.83-.14H32.88A3.31,3.31,0,0,1,33.43,49.24Z"/><path class="cls-2" d="M48.21,71.37h2v9.27c0,.78-.07,1.42-1,1.42s-1-.67-1-1.42C48.22,77.61,48.21,74.54,48.21,71.37Z"/><path class="cls-2" d="M74.41,46.44v-2c.28,0,.51-.09.76-.09h8.28a1.54,1.54,0,0,1,.81.13,1.84,1.84,0,0,1,.61,1.12,1.13,1.13,0,0,1-.82.8C80.85,46.47,77.67,46.44,74.41,46.44Z"/><path class="cls-2" d="M57.72,71.38h2V80.7c0,.73-.08,1.41-1,1.41s-1.07-.63-1.07-1.41V72A5.93,5.93,0,0,1,57.72,71.38Z"/><path class="cls-2" d="M59.71,29.47h-2a5,5,0,0,1-.1-.66V20c0-.69.33-1.21,1.05-1.21s1,.51,1,1.23Z"/><path class="cls-2" d="M33.5,44.34v2a1.59,1.59,0,0,1-.33.1h-9c-.68,0-1.11-.33-1.12-1a1,1,0,0,1,.89-1.09H33.5Z"/><path class="cls-2" d="M48.21,29.43V19.91a1,1,0,0,1,.88-1.16h.12a1,1,0,0,1,1,.86.89.89,0,0,1,0,.23v9.6Z"/><path class="cls-2" d="M74.42,56.12V54h9.15c.68,0,1.28.13,1.38,1a.87.87,0,0,1-.67,1l-.2,0C80.85,56.13,77.67,56.12,74.42,56.12Z"/><path class="cls-2" d="M33.5,54.07v2H24.58a2.05,2.05,0,0,1-.82-.1c-.17-.1-.7-.64-.7-1s.44-.66.7-1H24Z"/><path class="cls-2" d="M61.4,71.35h2.05v6.31a1,1,0,0,1-.81,1.11h-.2a.93.93,0,0,1-1-.84.86.86,0,0,1,0-.16C61.38,75.67,61.4,73.57,61.4,71.35Z"/><path class="cls-2" d="M45.85,71.38V77.3A1,1,0,0,1,45,78.4H44.8c-.68,0-1-.44-1-1.13V71.38Z"/><path class="cls-2" d="M66.15,62.92H41.83V38H66.15Z"/></g></g></svg>