<svg xmlns="http://www.w3.org/2000/svg" viewBox="0 0 100 100"><defs><style>.cls-1{fill:none;}.cls-2{fill:#fff;}</style></defs><g id="Capa_2" data-name="Capa 2"><g id="Capa_2-2" data-name="Capa 2"><rect class="cls-1" width="100" height="100"/><path class="cls-2" d="M87.8,23.84a4.78,4.78,0,0,0-4.72-4.78h0a4.89,4.89,0,1,0,4.75,4.87Z"/><path class="cls-2" d="M83.26,32.16a.88.88,0,0,0-.28,0,8.06,8.06,0,0,1-7.82-8.07,1.58,1.58,0,0,0-1.42-1.72,1.4,1.4,0,0,0-.35,0H23.23c-1.2,0-1.73.53-1.79,1.79a7.94,7.94,0,0,1-8,7.89,8,8,0,0,1-1.09-.1A1.56,1.56,0,0,0,10.4,33.1a1.84,1.84,0,0,0-.05.62V46.66a1.58,1.58,0,1,0,3.15,0V36.58l0-1.18a11.26,11.26,0,0,0,10.89-9.21,1,1,0,0,1,.8-.56H71.34c.53,0,.75.13.89.74a11.06,11.06,0,0,0,8.48,8.76c.62.15.78.37.78,1V64c0,.64-.22.8-.81,1a11.07,11.07,0,0,0-8.43,8.72c-.16.62-.33.82-.94.82h-46c-.61,0-.8-.18-.94-.82a10.9,10.9,0,0,0-6.76-8.15,31.46,31.46,0,0,0-4.06-1.06v-11c0-1.14-.57-1.82-1.53-1.84s-1.61.66-1.61,1.87V66.21a1.67,1.67,0,0,0,2.1,1.85,8.12,8.12,0,0,1,2,0,8,8,0,0,1,7,7.91c.09,1.23.61,1.77,1.82,1.77h50c1.27,0,1.78-.51,1.86-1.83a8.09,8.09,0,0,1,7.74-8c1.22-.09,1.74-.63,1.74-1.85V33.91A1.58,1.58,0,0,0,83.26,32.16Z"/><path class="cls-2" d="M29.07,84.22H11.19c-3.67,0-5.54-1.92-5.54-5.67v-57c0-3.85,1.85-5.77,5.58-5.77H58.88c1.36,0,2-.56,2-1.64s-.67-1.62-2-1.62H10.31a7.93,7.93,0,0,0-7.81,8v59a8,8,0,0,0,7.75,8H29.11a1.61,1.61,0,0,0,1.82-1.75C30.87,84.65,30.21,84.22,29.07,84.22Z"/><path class="cls-2" d="M13.5,81a4.89,4.89,0,1,0-4.69-5v.06A4.82,4.82,0,0,0,13.5,81Z"/><path class="cls-2" d="M83,74.48c.85-.12,1.52.56,1.7,1.71a1.58,1.58,0,0,0,1.66,1.5h.09a1.61,1.61,0,0,0,1.45-1.75h0a4.75,4.75,0,0,0-9.49.11l-.06,0A4.8,4.8,0,0,0,83,81a1.6,1.6,0,0,0,1.68-1.53,1.63,1.63,0,0,0-1.39-1.73,2.58,2.58,0,0,1-.86-.21,1.5,1.5,0,0,1-.86-1.67A1.56,1.56,0,0,1,83,74.48Z"/><path class="cls-2" d="M13.54,28.83a4.89,4.89,0,0,0,.09-9.77h-.09a4.89,4.89,0,0,0,0,9.77Z"/><path class="cls-2" d="M95.33,61.43H91V58.16h4.33c1.17,0,1.85-.59,1.85-1.6s-.66-1.64-1.83-1.64H91V51.65h4.33c1.17,0,1.85-.61,1.85-1.62s-.67-1.62-1.84-1.64H91V45.13h4.33c1.17,0,1.85-.6,1.85-1.63s-.67-1.62-1.84-1.62H91V38.69a.77.77,0,0,1,.26-.07h3.94c1.57,0,2-.51,2-2.13V20.9a8,8,0,0,0-7.55-8.35h-24A1.47,1.47,0,0,0,64.16,14v.08a1.57,1.57,0,0,0,1.43,1.68H88.85a4.9,4.9,0,0,1,5.32,4.48,5,5,0,0,1,0,1V35.35H89.54a1.55,1.55,0,0,0-1.74,1.36,1.42,1.42,0,0,0,0,.46V62.84c0,1.27.56,1.84,1.82,1.85h4.49V78.43c0,3.94-1.81,5.82-5.6,5.82H36c-1.28,0-1.92.58-1.91,1.67S34.77,87.5,36,87.5h53.6a8,8,0,0,0,7.7-7.93V63.38C97.27,62,96.73,61.44,95.33,61.43Z"/><path class="cls-2" d="M34,58.16A3.31,3.31,0,0,1,30.91,55c-.13-1.22-.73-1.82-1.73-1.73s-1.44.78-1.44,1.94a6.18,6.18,0,0,0,3.56,5.56A5.85,5.85,0,0,0,38.05,60a6.56,6.56,0,0,0-3.92-11.56,3.2,3.2,0,0,1-3.37-3,3.24,3.24,0,0,1,2.95-3.48,2.94,2.94,0,0,1,.42,0,3.28,3.28,0,0,1,3,3.19c.14,1.16.72,1.74,1.69,1.68s1.44-.74,1.44-1.89a6.35,6.35,0,0,0-6.16-6.24,6.43,6.43,0,0,0-6.37,6.27A6.52,6.52,0,0,0,34,51.67h0a3.16,3.16,0,0,1,3.17,3.16,3.49,3.49,0,0,1,0,.65A3.25,3.25,0,0,1,34,58.16Z"/><path class="cls-2" d="M83,32.15A8.06,8.06,0,0,1,75.16,24a1.51,1.51,0,0,0,0-.37,1.55,1.55,0,0,0-1.76-1.33H23.19c-1.2,0-1.79.53-1.79,1.79a8.78,8.78,0,0,1-.1,1.13,7.87,7.87,0,0,1-9,6.72,1.46,1.46,0,0,0-.59,0,1.61,1.61,0,0,0-1.34,1.83v13a1.57,1.57,0,1,0,3.14,0V35.4a11.27,11.27,0,0,0,10.89-9.28,1.05,1.05,0,0,1,.8-.57H71.34c.53,0,.75.14.89.75a11.07,11.07,0,0,0,8.48,8.79c.62.15.78.37.78,1V64c0,.65-.22.81-.81,1a11.07,11.07,0,0,0-8.43,8.68c-.16.63-.33.82-.94.82h-46c-.61,0-.8-.17-.94-.82a10.91,10.91,0,0,0-6.76-8.15,31.42,31.42,0,0,0-4.06-1v-11c0-1.13-.51-1.82-1.53-1.83s-1.61.65-1.61,1.86V66.19A1.67,1.67,0,0,0,12.51,68a8,8,0,0,1,2,0,8,8,0,0,1,7,7.91c.09,1.24.61,1.78,1.82,1.78h50c1.27,0,1.78-.51,1.86-1.84A8.09,8.09,0,0,1,82.9,68c1.22-.09,1.74-.62,1.74-1.84V34a2.26,2.26,0,0,0,0-.37A1.57,1.57,0,0,0,83,32.15Z"/><path class="cls-2" d="M95.57,61.43H91.23V58.16h4.34c1.16,0,1.84-.58,1.84-1.6s-.66-1.64-1.83-1.64H91.16V51.65h4.33c1.17,0,1.85-.59,1.85-1.62s-.66-1.64-1.83-1.64H91.09V45.13h4.33c1.17,0,1.85-.61,1.85-1.63s-.67-1.62-1.83-1.62H91V38.69a.77.77,0,0,1,.26-.07h3.94c1.57,0,2-.51,2-2.13V20.87a4.86,4.86,0,0,0,0-.54,7.94,7.94,0,0,0-8.07-7.82H65.52a1.47,1.47,0,0,0-1.37,1.56v0a1.55,1.55,0,0,0,1.44,1.66H88.85a4.62,4.62,0,0,1,.91,0,5,5,0,0,1,4.3,5.51V35.35H89.54a1.36,1.36,0,0,0-.45,0,1.58,1.58,0,0,0-1.29,1.81V62.84c0,1.27.56,1.85,1.82,1.85h4.49V78.47c0,4-1.81,5.83-5.6,5.83H36c-1.28,0-1.92.61-1.91,1.62S34.77,87.5,36,87.5H89.8a8,8,0,0,0,7.7-7.93V63.38C97.5,62,97,61.43,95.57,61.43Z"/><path class="cls-2" d="M29.07,84.25H11.19c-3.67,0-5.54-1.92-5.54-5.67V50l0-28.53c0-3.85,1.84-5.74,5.58-5.74H58.91c1.36,0,2.05-.53,2-1.59s-.67-1.63-2-1.63H10.31a7.94,7.94,0,0,0-7.81,8v59a8,8,0,0,0,7.75,8H29.11a1.65,1.65,0,0,0,1.82-1.75C30.86,84.79,30.21,84.25,29.07,84.25Z"/><path class="cls-2" d="M44.92,50V40.66c0-1.49.52-2,1.87-2h4.54a6.36,6.36,0,0,1,6.21,6.4v10a6.36,6.36,0,0,1-6.23,6.36h-4.5c-1.36,0-1.88-.57-1.88-2Q44.92,54.72,44.92,50Zm3.2,8.19h2.7a4.09,4.09,0,0,0,.7,0A3.23,3.23,0,0,0,54.4,54.9V45.25A3.14,3.14,0,0,0,51.52,42a33.08,33.08,0,0,0-3.45,0Z"/><path class="cls-2" d="M34.12,38.62a6.36,6.36,0,0,1,6.28,6.24c0,1.15-.54,1.85-1.44,1.89s-1.55-.52-1.69-1.68a3.28,3.28,0,0,0-3-3.19,3.26,3.26,0,0,0-.43,6.51h.43A6.56,6.56,0,0,1,38.16,60a5.83,5.83,0,0,1-6.74.84,6.21,6.21,0,0,1-3.57-5.56c0-1.16.49-1.86,1.45-1.94S30.9,53.8,31,55a3.32,3.32,0,0,0,3,3.14,3.26,3.26,0,0,0,.68-6.44,3.12,3.12,0,0,0-.68,0,6.52,6.52,0,0,1-6.3-6.7v-.08A6.43,6.43,0,0,1,34.12,38.62Z"/><path class="cls-2" d="M68.64,61.43a6.38,6.38,0,0,1-6.34-6.2c0-1.18.51-1.86,1.44-1.94s1.61.51,1.74,1.73a3.31,3.31,0,0,0,3.16,3.14,3.24,3.24,0,0,0,3.16-2.68,3.18,3.18,0,0,0-2.44-3.74,2.88,2.88,0,0,0-.72-.06,6.54,6.54,0,0,1-.1-13.08l.47,0a6.37,6.37,0,0,1,6,6.24c0,1.15-.53,1.85-1.44,1.89s-1.55-.52-1.69-1.68a3.28,3.28,0,0,0-3-3.19,3.26,3.26,0,0,0-.43,6.51h.43a6.54,6.54,0,0,1-.2,13Z"/><path class="cls-2" d="M13.54,19.06a4.89,4.89,0,0,1,0,9.77A4.82,4.82,0,0,1,8.81,24a4.77,4.77,0,0,1,4.63-4.9Zm1.58,4.84a1.69,1.69,0,0,0-1.63-1.58,1.63,1.63,0,0,0,.08,3.25A1.7,1.7,0,0,0,15.12,23.9Z"/><path class="cls-2" d="M83.08,19.06a4.89,4.89,0,1,1-4.74,4.88h0A4.78,4.78,0,0,1,83,19.06Zm1.57,4.88a1.58,1.58,0,1,0-1.57,1.63,1.69,1.69,0,0,0,1.54-1.63Z"/><path class="cls-2" d="M8.81,76.06a4.74,4.74,0,1,1,9.47.09A4.81,4.81,0,0,1,13.5,81h-.1A4.77,4.77,0,0,1,8.81,76.06Zm6.31,0a1.69,1.69,0,0,0-1.63-1.58,1.63,1.63,0,0,0,.08,3.23A1.67,1.67,0,0,0,15.12,76.06Z"/><path class="cls-2" d="M78.31,76.07A4.75,4.75,0,0,1,87.8,76a1.62,1.62,0,0,1-1.44,1.76h0a1.56,1.56,0,0,1-1.73-1.4.28.28,0,0,1,0-.09c-.19-1.15-.85-1.84-1.71-1.72a1.56,1.56,0,0,0-1.44,1.36,1.51,1.51,0,0,0,.87,1.67,3.11,3.11,0,0,0,.85.21A1.64,1.64,0,0,1,82.89,81,4.81,4.81,0,0,1,78.31,76.07Z"/></g></g></svg>