<svg xmlns="http://www.w3.org/2000/svg" viewBox="0 0 100 100"><defs><style>.cls-1{fill:none;}.cls-2{fill:#fff;}</style></defs><g id="Capa_2" data-name="Capa 2"><g id="Capa_2-2" data-name="Capa 2"><rect class="cls-1" width="100" height="100"/><g id="Capa_4" data-name="Capa 4"><path class="cls-2" d="M90.94,40.4c-4.07.12-8.14,0-12.21,0h-1a1.38,1.38,0,0,0,0,2.75,3.54,3.54,0,0,0,.92,0H91.66c2.22,0,3.08.87,3.08,3.1V83.84c0,2.33-.82,3.17-3.1,3.17H8.39c-2.28,0-3.11-.84-3.11-3.17V46.47c0-2.37.83-3.21,3.16-3.21h61.7c1,0,1.61-.59,1.61-1.37s-.54-1.38-1.58-1.46h-14v-3.3a2.88,2.88,0,0,0-2.82-2.94h-2V31.93a4,4,0,0,1,3.79-4.13,1.31,1.31,0,0,1,.28,0h2.59a6.64,6.64,0,0,0,6.32-5.9A31.93,31.93,0,0,0,64.39,17a6.82,6.82,0,0,0-3.93-6.28,10.19,10.19,0,0,0-4.64-.63,5.91,5.91,0,0,1-1,0h-.72a9,9,0,0,1-4.29-.1,6.4,6.4,0,0,0,3.83,2.75,17,17,0,0,0,3.77.27,4,4,0,0,1,4.17,3.78v.35c.05,1.38.05,2.75,0,4.13a3.66,3.66,0,0,1-3.1,3.49,31.43,31.43,0,0,1-3.5.17,6.7,6.7,0,0,0-6.42,6.11c-.09,1-.13,2-.2,3.11h-.9a3.17,3.17,0,0,0-3.66,2.6,3.51,3.51,0,0,0,0,1.12v2.59H8.48A6.49,6.49,0,0,0,5,41.25,6.16,6.16,0,0,0,2.5,44.6V85.85a6,6,0,0,0,2.84,3.49c.63.27,1.35.44,2,.66H92.68a5.62,5.62,0,0,0,3.84-2.29c.38-.59.65-1.24,1-1.86V44.6C96.47,41.35,94.17,40.23,90.94,40.4ZM46.67,36.93h6.61v3.36H46.67Z"/><path class="cls-2" d="M24.53,77v4.6h50.9V77H35.9c-1.51,0-2.19-.44-2.2-1.38s.69-1.38,2.17-1.38H75.39c2.15,0,3,.84,3,3v4.62a2.43,2.43,0,0,1-2,2.75,2.58,2.58,0,0,1-.68,0H24.31a2.42,2.42,0,0,1-2.72-2.07,2.58,2.58,0,0,1,0-.68V76.94a2.42,2.42,0,0,1,2-2.75,2.06,2.06,0,0,1,.7,0h3.24a1.35,1.35,0,0,1,1.51,1.2,1,1,0,0,1,0,.17A1.35,1.35,0,0,1,27.73,77h-.19Z"/><path class="cls-2" d="M16.51,60.61h5.42a2.29,2.29,0,0,1,2.57,2,1.74,1.74,0,0,1,0,.51v5.26A2.36,2.36,0,0,1,22.38,71a2.26,2.26,0,0,1-.58,0H11.14c-1.52,0-2.47-.67-2.56-2.12a49.17,49.17,0,0,1,0-6.19,2.06,2.06,0,0,1,2.08-2l.25,0C12.79,60.59,14.71,60.61,16.51,60.61ZM11.42,68H21.5V63.51H11.42Z"/><path class="cls-2" d="M83.49,60.61h5.43a2.15,2.15,0,0,1,2.46,1.83,2.19,2.19,0,0,1,0,.36,48.72,48.72,0,0,1,0,5.92A2.23,2.23,0,0,1,89.18,71H78a2.27,2.27,0,0,1-2.46-2.06c0-.1,0-.2,0-.3V62.93a2.27,2.27,0,0,1,2.15-2.36,2.82,2.82,0,0,1,.41,0Zm-5,2.86V68H88.61V63.47Z"/><path class="cls-2" d="M13.86,47.05h3a2.26,2.26,0,0,1,2.36,2.15v5.72A2.32,2.32,0,0,1,17,57.34H10.91a2.13,2.13,0,0,1-2.33-1.93,1.55,1.55,0,0,1,0-.22,49.33,49.33,0,0,1,0-6.2,2,2,0,0,1,2.1-2h.16C11.88,47,12.87,47.05,13.86,47.05Zm-2.46,7.4h5V49.93h-5Z"/><path class="cls-2" d="M25.88,47.05h3a2.26,2.26,0,0,1,2.39,2.12V55A2.3,2.3,0,0,1,29,57.39H23a2.37,2.37,0,0,1-2.48-2.27c0-.11,0-.21,0-.32V49.61A2.38,2.38,0,0,1,22.7,47a2.53,2.53,0,0,1,.55,0Zm-2.39,2.87v4.54h4.9V49.92Z"/><path class="cls-2" d="M37.93,47.05h2.88a2.31,2.31,0,0,1,2.48,2.13c0,.1,0,.2,0,.3v5.44a2.34,2.34,0,0,1-2.18,2.47h-6a2.34,2.34,0,0,1-2.5-2.19,1.93,1.93,0,0,1,0-.34V49.59a2.35,2.35,0,0,1,2.15-2.54,2.06,2.06,0,0,1,.43,0Zm2.49,7.41V49.94H35.51v4.52Z"/><path class="cls-2" d="M62.21,47.05h2.72a2.32,2.32,0,0,1,2.55,2.06,1.61,1.61,0,0,1,0,.38c.07,1.84.07,3.67,0,5.51a2.35,2.35,0,0,1-2.25,2.45H59.36a2.4,2.4,0,0,1-2.58-2.21,2.16,2.16,0,0,1,0-.44V49.71a2.37,2.37,0,0,1,2.1-2.61,2.68,2.68,0,0,1,.49,0Zm-2.57,7.41h4.91V49.94h-5Z"/><path class="cls-2" d="M74.13,47.05h2.71a2.33,2.33,0,0,1,2.62,2,2.5,2.5,0,0,1,0,.47q.09,2.69,0,5.37a2.37,2.37,0,0,1-2.22,2.49,1.82,1.82,0,0,1-.33,0H71.35a2.37,2.37,0,0,1-2.57-2.16,2.57,2.57,0,0,1,0-.48V49.66a2.35,2.35,0,0,1,2-2.61,2.44,2.44,0,0,1,.54,0Zm-2.52,7.41h4.91V49.94H71.61Z"/><path class="cls-2" d="M86.11,47.05h2.72c1.53,0,2.43.65,2.54,2.14a50.38,50.38,0,0,1,0,6,2.18,2.18,0,0,1-2.17,2.18H83.1a2.28,2.28,0,0,1-2.36-2.22,1.13,1.13,0,0,1,0-.26V49.55a2.3,2.3,0,0,1,2.1-2.48h.33C84.2,47,85.16,47.05,86.11,47.05Zm-2.45,2.87v4.53h4.9V49.92Z"/><path class="cls-2" d="M68.59,60.61h2.88a2.26,2.26,0,0,1,2.45,2.09c0,.11,0,.23,0,.34v5.51A2.29,2.29,0,0,1,71.8,71a.61.61,0,0,1-.19,0q-3,.09-6,0a2.06,2.06,0,0,1-2.23-1.9.62.62,0,0,1,0-.13,60,60,0,0,1,0-6.29,2.06,2.06,0,0,1,2.12-2h.15C66.61,60.59,67.64,60.61,68.59,60.61ZM66.16,68h4.93V63.48H66.16Z"/><path class="cls-2" d="M31.46,60.61h2.72c1.54,0,2.47.7,2.55,2.23a50,50,0,0,1,0,6A2.14,2.14,0,0,1,34.59,71h-6.1a2.29,2.29,0,0,1-2.37-2.2,2.44,2.44,0,0,1,0-.27V63.11a2.31,2.31,0,0,1,2.1-2.51,1.89,1.89,0,0,1,.41,0Zm2.38,2.9h-4.9V68h4.9Z"/><path class="cls-2" d="M13.86,74.17h2.86a2.31,2.31,0,0,1,2.47,2.14,1.82,1.82,0,0,1,0,.33v5.51A2.28,2.28,0,0,1,17,84.48H10.83a2,2,0,0,1-2.21-1.87.81.81,0,0,1,0-.16,50.61,50.61,0,0,1,0-6.28,2.06,2.06,0,0,1,2.12-2h.14C11.88,74.15,12.87,74.17,13.86,74.17Zm-2.43,7.41h4.9V77.05h-4.9Z"/><path class="cls-2" d="M86.15,74.17h2.72a2.18,2.18,0,0,1,2.5,2.18,51.73,51.73,0,0,1,0,6.1,2.07,2.07,0,0,1-2.1,2H83.13a2.29,2.29,0,0,1-2.32-2.25.43.43,0,0,1,0-.16V76.56A2.29,2.29,0,0,1,83,74.19h3.11ZM83.63,81.6h4.93V77.08H83.63Z"/><path class="cls-2" d="M50,47.05h2.85a2.29,2.29,0,0,1,2.49,2.08c0,.11,0,.22,0,.33V55a2.34,2.34,0,0,1-2.19,2.48h-6a2.35,2.35,0,0,1-2.51-2.21,1.6,1.6,0,0,1,0-.31V49.57a2.32,2.32,0,0,1,2.15-2.46,2.54,2.54,0,0,1,.39,0Zm2.48,7.44V49.94H47.6v4.55Z"/><path class="cls-2" d="M43.8,71H40.92a2.3,2.3,0,0,1-2.44-2.17,1.6,1.6,0,0,1,0-.31V63a2.23,2.23,0,0,1,2.05-2.4c.11,0,.22,0,.34,0h5.85a2.18,2.18,0,0,1,2.36,2,1.82,1.82,0,0,1,0,.33v5.63a2.28,2.28,0,0,1-2.18,2.39h-.26C45.71,71,44.76,71,43.8,71Zm2.47-7.44H41.34V68h4.93Z"/><path class="cls-2" d="M56.2,60.61h3a2.23,2.23,0,0,1,2.34,2.11v5.75a2.25,2.25,0,0,1-2.07,2.41H59.2q-3,.09-6,0a2.19,2.19,0,0,1-2.27-2.1v-.13c-.07-1.94-.08-3.9,0-5.83A2.18,2.18,0,0,1,53,60.55h.34C54.29,60.59,55.25,60.61,56.2,60.61ZM53.73,68h4.94V63.5H53.73Z"/></g></g></g></svg>